<svg xmlns="http://www.w3.org/2000/svg" width="71" height="71" viewBox="0 0 71 71">
  <g id="Grupo_350" data-name="Grupo 350" transform="translate(-506 -5590.147)">
    <rect id="Retângulo_68" data-name="Retângulo 68" width="71" height="71" transform="translate(506 5590.147)" fill="#a99e88"/>
    <g id="whatsapp-logo-variant_1_" data-name="whatsapp-logo-variant (1)" transform="translate(519.667 5605.667)">
      <path id="Caminho_160" data-name="Caminho 160" d="M43.333,21.109A21.312,21.312,0,0,1,11.777,39.593L0,43.333,3.839,32a20.894,20.894,0,0,1-3.051-10.9,21.273,21.273,0,0,1,42.545,0ZM22.057,3.366A17.835,17.835,0,0,0,4.174,21.113a17.556,17.556,0,0,0,3.407,10.4L5.348,38.1l6.87-2.183A17.905,17.905,0,0,0,39.943,21.109,17.834,17.834,0,0,0,22.057,3.366ZM32.8,25.971c-.133-.213-.48-.343-1-.6s-3.086-1.511-3.562-1.68-.828-.261-1.176.257-1.344,1.683-1.65,2.031-.608.39-1.129.134a14.376,14.376,0,0,1-4.2-2.567,15.566,15.566,0,0,1-2.9-3.583c-.307-.517-.031-.8.227-1.054.233-.233.521-.6.783-.909a3.449,3.449,0,0,0,.521-.861.964.964,0,0,0-.044-.909c-.13-.26-1.171-2.8-1.608-3.839s-.868-.863-1.173-.863-.651-.042-1-.042a1.909,1.909,0,0,0-1.389.644,5.79,5.79,0,0,0-1.824,4.315,10,10,0,0,0,2.128,5.351c.263.343,3.609,5.74,8.909,7.811s5.3,1.379,6.258,1.291,3.086-1.251,3.518-2.457A4.3,4.3,0,0,0,32.8,25.971Z" fill="#fff"/>
    </g>
  </g>
</svg>
