<svg xmlns="http://www.w3.org/2000/svg" width="71" height="71" viewBox="0 0 71 71">
  <g id="Grupo_349" data-name="Grupo 349" transform="translate(-405 -5273)">
    <rect id="Retângulo_67" data-name="Retângulo 67" width="71" height="71" transform="translate(405 5273)" fill="#a99e88"/>
    <g id="instagram-logo_1_" data-name="instagram-logo (1)" transform="translate(419 5289)">
      <path id="Caminho_157" data-name="Caminho 157" d="M30.633,0H11.676A11.689,11.689,0,0,0,0,11.676V30.633A11.689,11.689,0,0,0,11.676,42.309H30.633A11.689,11.689,0,0,0,42.309,30.633V11.676A11.689,11.689,0,0,0,30.633,0Zm7.922,30.633a7.931,7.931,0,0,1-7.922,7.922H11.676a7.931,7.931,0,0,1-7.922-7.922V11.676a7.931,7.931,0,0,1,7.922-7.922H30.633a7.931,7.931,0,0,1,7.922,7.922V30.633Z" transform="translate(0)" fill="#fff"/>
      <path id="Caminho_158" data-name="Caminho 158" d="M51.87,40.97a10.9,10.9,0,1,0,10.9,10.9A10.914,10.914,0,0,0,51.87,40.97Zm0,18.049a7.148,7.148,0,1,1,7.148-7.148A7.156,7.156,0,0,1,51.87,59.019Z" transform="translate(-30.715 -30.717)" fill="#fff"/>
      <path id="Caminho_159" data-name="Caminho 159" d="M121.674,28.251a2.751,2.751,0,1,0,1.947.806A2.764,2.764,0,0,0,121.674,28.251Z" transform="translate(-89.16 -21.181)" fill="#fff"/>
    </g>
  </g>
</svg>
