<svg xmlns="http://www.w3.org/2000/svg" width="113.53" height="88.97" viewBox="0 0 113.53 88.97">
  <g id="Grupo_13" data-name="Grupo 13" transform="translate(-49 -46)">
    <g id="Grupo_12" data-name="Grupo 12" transform="translate(49 46)">
      <g id="Grupo_3" data-name="Grupo 3">
        <g id="Grupo_2" data-name="Grupo 2">
          <g id="Grupo_1" data-name="Grupo 1">
            <path id="Caminho_1" data-name="Caminho 1" d="M113.01,13.19c-1.35-.68-1.16-1.45-1.16-1.45s.3-1,.79-.88c.49.14-1.39-2.25-2.64-2.57s-7.81-.66-11.3.62-12.64,8.38-12.64,8.38S76.42,24.24,69.67,27.5s-7.65,6.72-7.65,6.72L58.1,39.6s-.85,2.27-1.29-.33a13.8,13.8,0,0,0,2.09-3.73,48.841,48.841,0,0,0-7.76,5.15,63.843,63.843,0,0,1-10.42,6.23c-1.84.45-12.8,10.7-10.67,17.64C25.45,67.26.17,70.09,0,69.78a13.9,13.9,0,0,0,2.62,2.05c1.71-.4,15.65-.94,32.36-6.68a29.482,29.482,0,0,0,10.59,1.26s7.65-.49,9.51-1.04c1.84-.56-5.39-2.44-5.39-2.44s6.62.54,9.1-.15,6.78-.63,16.95-5.96A76.522,76.522,0,0,0,93.48,43.47a48.819,48.819,0,0,0,13.77-13.16c-4.35,1.91-6.51.46-6.51.46s-.63-.98.98-.57c1.59.42,6.69-2.34,8.86-6.38a35.678,35.678,0,0,0,2.95-7.1S112.26,14.15,113.01,13.19Zm-72,47.57,61.52-41.85C81.51,36.01,81.62,35.93,41.01,60.76Z" fill="#9a1e2e"/>
          </g>
        </g>
      </g>
      <g id="Grupo_11" data-name="Grupo 11">
        <g id="Grupo_5" data-name="Grupo 5">
          <g id="Grupo_4" data-name="Grupo 4">
            <path id="Caminho_2" data-name="Caminho 2" d="M100.63,88.95H12.81v-.84H99.79V41.51h.84Z" fill="#a99e88"/>
          </g>
        </g>
        <g id="Grupo_10" data-name="Grupo 10">
          <g id="Grupo_7" data-name="Grupo 7">
            <g id="Grupo_6" data-name="Grupo 6">
              <path id="Caminho_3" data-name="Caminho 3" d="M100.63,6.75h-.84V.84H12.43V0h88.2Z" fill="#a99e88"/>
            </g>
          </g>
          <g id="Grupo_9" data-name="Grupo 9">
            <g id="Grupo_8" data-name="Grupo 8">
              <rect id="Retângulo_1" data-name="Retângulo 1" width="0.85" height="88.97" transform="translate(12)" fill="#a99e88"/>
            </g>
          </g>
        </g>
      </g>
    </g>
  </g>
</svg>
