<svg xmlns="http://www.w3.org/2000/svg" width="187.37" height="148.836" viewBox="0 0 187.37 148.836">
  <g id="Grupo_12" data-name="Grupo 12" transform="translate(0 1)">
    <g id="Grupo_3" data-name="Grupo 3" transform="translate(0 13.195)">
      <g id="Grupo_2" data-name="Grupo 2">
        <g id="Grupo_1" data-name="Grupo 1">
          <path id="Caminho_1" data-name="Caminho 1" d="M186.512,16.569c-2.228-1.122-1.914-2.393-1.914-2.393s.5-1.65,1.3-1.452c.809.231-2.294-3.713-4.357-4.242-2.046-.528-12.89-1.089-18.65,1.023-5.743,2.129-20.861,13.83-20.861,13.83s-15.91,11.47-27.05,16.851c-11.14,5.364-12.626,11.091-12.626,11.091l-6.47,8.879s-1.4,3.746-2.129-.545c2.921-4.142,3.449-6.156,3.449-6.156a80.608,80.608,0,0,0-12.807,8.5C77.09,67.7,69.8,70.718,67.2,72.237c-3.037.743-21.125,17.659-17.61,29.113C42,105.806.281,110.476,0,109.965a22.943,22.943,0,0,0,4.324,3.383c2.822-.66,25.829-1.551,53.407-11.025a48.657,48.657,0,0,0,17.478,2.08s12.626-.809,15.7-1.716c3.037-.924-8.9-4.027-8.9-4.027s10.926.891,15.019-.248c4.109-1.155,11.19-1.04,27.974-9.836,16.834-8.8,28.981-21.851,29.278-22.033.281-.165,13.649-8.219,22.726-21.719-7.179,3.152-10.744.759-10.744.759s-1.04-1.617,1.617-.941c2.624.693,11.041-3.862,14.623-10.53a58.883,58.883,0,0,0,4.869-11.718S185.274,18.153,186.512,16.569ZM67.683,95.078,169.216,26.009C134.524,54.231,134.706,54.1,67.683,95.078Z" transform="translate(0 -7.995)" fill="#860f22"/>
        </g>
      </g>
    </g>
    <g id="Grupo_11" data-name="Grupo 11" transform="translate(19.805)">
      <g id="Grupo_5" data-name="Grupo 5" transform="translate(1.337 68.508)">
        <g id="Grupo_4" data-name="Grupo 4">
          <path id="Caminho_2" data-name="Caminho 2" d="M157.748,119.8H12.81v-1.386H156.362V41.51h1.386Z" transform="translate(-12.81 -41.51)" fill="#9b8c74" stroke="#9b8c74" stroke-width="2"/>
        </g>
      </g>
      <g id="Grupo_10" data-name="Grupo 10">
        <g id="Grupo_7" data-name="Grupo 7" transform="translate(0.71)">
          <g id="Grupo_6" data-name="Grupo 6">
            <path id="Caminho_3" data-name="Caminho 3" d="M158,11.14h-1.386V1.386H12.43V0H158Z" transform="translate(-12.43)" fill="#9b8c74" stroke="#9b8c74" stroke-width="2"/>
          </g>
        </g>
        <g id="Grupo_9" data-name="Grupo 9">
          <g id="Grupo_8" data-name="Grupo 8">
            <rect id="Retângulo_1" data-name="Retângulo 1" width="1.403" height="146.836" fill="#9b8c74" stroke="#9b8c74" stroke-width="2"/>
          </g>
        </g>
      </g>
    </g>
  </g>
</svg>
