<svg xmlns="http://www.w3.org/2000/svg" width="74.569" height="46.751" viewBox="0 0 74.569 46.751">
  <g id="Grupo_64" data-name="Grupo 64" transform="translate(-1706.408 -80.601)">
    <g id="Grupo_17" data-name="Grupo 17" transform="translate(1706.408 80.601)">
      <g id="Grupo_16" data-name="Grupo 16">
        <g id="Grupo_15" data-name="Grupo 15">
          <g id="Grupo_14" data-name="Grupo 14">
            <rect id="Retângulo_2" data-name="Retângulo 2" width="74.569" height="46.751" fill="#49a13b"/>
          </g>
        </g>
      </g>
    </g>
    <g id="Grupo_18" data-name="Grupo 18" transform="translate(1714.666 85.898)">
      <path id="Caminho_4" data-name="Caminho 4" d="M1714.4,103.975l28.862-18.248,29.245,17.944-28.863,18.172Z" transform="translate(-1714.4 -85.728)" fill="#ffe810"/>
    </g>
    <g id="Grupo_19" data-name="Grupo 19" transform="translate(1731.081 91.375)">
      <path id="Caminho_5" data-name="Caminho 5" d="M1755.257,103.518a12.571,12.571,0,0,1-1.169,5.277,12.486,12.486,0,0,1-23.8-5.277,12.314,12.314,0,0,1,.5-3.5,12.481,12.481,0,0,1,24.464,3.5Z" transform="translate(-1730.289 -91.029)" fill="#289dba"/>
    </g>
    <g id="Grupo_20" data-name="Grupo 20" transform="translate(1731.584 97.653)">
      <path id="Caminho_6" data-name="Caminho 6" d="M1754.978,105.854a12.037,12.037,0,0,1-.907,2.74c-.017-.009-.025-.028-.048-.046a24.966,24.966,0,0,0-11.378-7.349c-4.356-1.466-10.905-1.4-11.869-1.381a12.537,12.537,0,0,1,1.109-2.659s4.2-.467,11.369,1.4A22.829,22.829,0,0,1,1754.978,105.854Z" transform="translate(-1730.776 -97.106)" fill="#fff"/>
    </g>
    <g id="Grupo_36" data-name="Grupo 36" transform="translate(1732.888 98.393)">
      <g id="Grupo_21" data-name="Grupo 21">
        <path id="Caminho_7" data-name="Caminho 7" d="M1732.78,97.822a.771.771,0,0,0-.741.878.749.749,0,0,0,.758.815.772.772,0,0,0,.743-.887A.755.755,0,0,0,1732.78,97.822Zm.026,1.521c-.337.01-.53-.3-.538-.651s.153-.688.5-.7.53.331.539.652C1733.318,99.022,1733.139,99.335,1732.806,99.343Z" transform="translate(-1732.038 -97.822)" fill="#49a13b"/>
      </g>
      <g id="Grupo_22" data-name="Grupo 22" transform="translate(1.775 0)">
        <path id="Caminho_8" data-name="Caminho 8" d="M1734.711,99.031a.4.4,0,0,0-.237-.331v-.008a.432.432,0,0,0,.31-.422.412.412,0,0,0-.13-.312.653.653,0,0,0-.465-.136,2.539,2.539,0,0,0-.411.028l-.022,1.621h.214l.009-.7h.2c.194.009.277.091.328.32a1.843,1.843,0,0,0,.1.394l.224.009A1.986,1.986,0,0,1,1734.711,99.031Zm-.512-.42-.219-.009.009-.6a1.012,1.012,0,0,1,.21-.018c.22,0,.373.1.373.313C1734.571,98.482,1734.425,98.61,1734.2,98.61Z" transform="translate(-1733.756 -97.822)" fill="#49a13b"/>
      </g>
      <g id="Grupo_23" data-name="Grupo 23" transform="translate(3.07 0.033)">
        <path id="Caminho_9" data-name="Caminho 9" d="M1736.2,98.1a.971.971,0,0,0-.653-.239,3.734,3.734,0,0,0-.456.009l-.083,1.622c.1.019.236.026.381.036a1.014,1.014,0,0,0,.744-.2.865.865,0,0,0,.268-.624A.767.767,0,0,0,1736.2,98.1Zm-.753,1.266c-.083-.009-.165-.02-.219-.028l.061-1.293a1.092,1.092,0,0,1,.258-.009.584.584,0,0,1,.636.659A.64.64,0,0,1,1735.448,99.361Z" transform="translate(-1735.01 -97.854)" fill="#49a13b"/>
      </g>
      <g id="Grupo_24" data-name="Grupo 24" transform="translate(4.681 0.128)">
        <path id="Caminho_10" data-name="Caminho 10" d="M1737.59,98.2l.017-.175-.888-.083-.15,1.631.915.091.018-.183-.714-.065.058-.586.638.056.008-.176-.629-.054.042-.523Z" transform="translate(-1736.569 -97.946)" fill="#49a13b"/>
      </g>
      <g id="Grupo_25" data-name="Grupo 25" transform="translate(5.82 0.257)">
        <path id="Caminho_11" data-name="Caminho 11" d="M1739.19,98.235l-.4.742c-.1.2-.185.368-.25.523h-.008c-.019-.174-.044-.357-.083-.567l-.162-.827-.277-.035-.337,1.6.2.037.141-.7c.053-.238.1-.511.136-.714.016.2.057.422.1.659l.158.816.153.018.407-.751c.108-.211.21-.4.293-.587h.008c-.038.2-.057.478-.083.707l-.057.723.2.027.127-1.639Z" transform="translate(-1737.671 -98.071)" fill="#49a13b"/>
      </g>
      <g id="Grupo_26" data-name="Grupo 26" transform="translate(8.755 0.838)">
        <path id="Caminho_12" data-name="Caminho 12" d="M1741.954,99.582l-.183-.046a1.207,1.207,0,0,1-.276.42c-.069-.137-.185-.347-.277-.53v-.009c.286-.065.417-.176.461-.339a.35.35,0,0,0-.272-.432.4.4,0,0,0-.5.293.536.536,0,0,0,.047.368v.008a.541.541,0,0,0-.432.395.473.473,0,0,0,.385.567.725.725,0,0,0,.517-.074c.043.084.069.139.1.194l.249.064c-.069-.129-.134-.24-.2-.349A1.2,1.2,0,0,0,1741.954,99.582Zm-.853-.614a.218.218,0,0,1,.258-.185.2.2,0,0,1,.127.258c-.026.127-.153.191-.337.247A.474.474,0,0,1,1741.1,98.969Zm-.118,1.153a.321.321,0,0,1-.25-.395.38.38,0,0,1,.285-.274c.131.247.257.486.333.605A.427.427,0,0,1,1740.983,100.122Z" transform="translate(-1740.512 -98.633)" fill="#49a13b"/>
      </g>
      <g id="Grupo_27" data-name="Grupo 27" transform="translate(11.156 1.476)">
        <path id="Caminho_13" data-name="Caminho 13" d="M1744.142,99.625a.732.732,0,0,0-.4-.276,2.969,2.969,0,0,0-.393-.1l-.518,1.538.206.073.2-.622a.9.9,0,0,0,.7.055.5.5,0,0,0,.228-.292A.441.441,0,0,0,1744.142,99.625Zm-.176.321a.357.357,0,0,1-.5.2c-.065-.029-.118-.048-.166-.074l.211-.606a.818.818,0,0,1,.193.048C1743.923,99.589,1744.032,99.736,1743.966,99.946Z" transform="translate(-1742.836 -99.25)" fill="#49a13b"/>
      </g>
      <g id="Grupo_28" data-name="Grupo 28" transform="translate(12.37 1.916)">
        <path id="Caminho_14" data-name="Caminho 14" d="M1745.372,100.078a.678.678,0,0,0-.389-.293,2.78,2.78,0,0,0-.394-.108l-.578,1.52.2.074.25-.669.188.073c.176.073.232.184.193.413a2.574,2.574,0,0,0-.036.4l.21.083a3.677,3.677,0,0,1,.04-.467.386.386,0,0,0-.114-.394l.009-.009a.421.421,0,0,0,.428-.284A.383.383,0,0,0,1745.372,100.078Zm-.187.293a.328.328,0,0,1-.461.155l-.2-.072.211-.568a1.3,1.3,0,0,1,.2.064C1745.144,100.024,1745.259,100.169,1745.185,100.371Z" transform="translate(-1744.011 -99.676)" fill="#49a13b"/>
      </g>
      <g id="Grupo_29" data-name="Grupo 29" transform="translate(13.728 2.573)">
        <path id="Caminho_15" data-name="Caminho 15" d="M1746.467,100.378a.789.789,0,0,0-1.052.476.755.755,0,1,0,1.38.586A.739.739,0,0,0,1746.467,100.378Zm.131.98c-.158.34-.461.54-.761.4a.577.577,0,0,1-.215-.815c.149-.331.442-.559.767-.412A.6.6,0,0,1,1746.6,101.359Z" transform="translate(-1745.325 -100.312)" fill="#49a13b"/>
      </g>
      <g id="Grupo_30" data-name="Grupo 30" transform="translate(15.261 3.377)">
        <path id="Caminho_16" data-name="Caminho 16" d="M1748.12,101.223a.818.818,0,0,0-1.186.311.8.8,0,0,0-.093.642.845.845,0,0,0,.43.495,1.449,1.449,0,0,0,.487.156l.381-.688-.474-.266-.083.156.294.156-.239.431a.658.658,0,0,1-.265-.091.6.6,0,0,1-.237-.891.612.612,0,0,1,.9-.264.864.864,0,0,1,.281.238l.132-.128A1.017,1.017,0,0,0,1748.12,101.223Z" transform="translate(-1746.809 -101.09)" fill="#49a13b"/>
      </g>
      <g id="Grupo_31" data-name="Grupo 31" transform="translate(16.428 3.985)">
        <path id="Caminho_17" data-name="Caminho 17" d="M1749.444,102.578a.414.414,0,0,0,.069-.331.7.7,0,0,0-.327-.376,2.539,2.539,0,0,0-.36-.192l-.889,1.356.175.111.394-.587.163.111c.157.112.183.229.1.449a2,2,0,0,0-.123.385l.18.118a2.643,2.643,0,0,1,.149-.448.417.417,0,0,0-.023-.4v-.008A.436.436,0,0,0,1749.444,102.578Zm-.674-.037-.18-.119.328-.5a1.014,1.014,0,0,1,.193.1c.184.128.258.293.146.467A.327.327,0,0,1,1748.771,102.541Z" transform="translate(-1747.939 -101.679)" fill="#49a13b"/>
      </g>
      <g id="Grupo_32" data-name="Grupo 32" transform="translate(17.49 4.756)">
        <path id="Caminho_18" data-name="Caminho 18" d="M1750.553,103.1l.11-.146-.7-.531-.991,1.3.731.558.1-.137-.557-.431.355-.478.5.4.109-.146-.513-.386.323-.412Z" transform="translate(-1748.967 -102.425)" fill="#49a13b"/>
      </g>
      <g id="Grupo_33" data-name="Grupo 33" transform="translate(18.407 5.671)">
        <path id="Caminho_19" data-name="Caminho 19" d="M1751.321,103.459a.48.48,0,0,0-.7,0,.514.514,0,0,0,.026.632c.118.211.131.339.026.457s-.271.128-.447-.008a.848.848,0,0,1-.218-.331l-.157.1a.828.828,0,0,0,.258.347.485.485,0,0,0,.744.01c.154-.184.135-.376-.013-.631-.11-.221-.135-.339-.043-.459a.28.28,0,0,1,.4.009.7.7,0,0,1,.184.264l.153-.091A.682.682,0,0,0,1751.321,103.459Z" transform="translate(-1749.854 -103.31)" fill="#49a13b"/>
      </g>
      <g id="Grupo_34" data-name="Grupo 34" transform="translate(19.313 6.487)">
        <path id="Caminho_20" data-name="Caminho 20" d="M1752.228,104.265a.481.481,0,0,0-.7-.027c-.153.174-.127.383.008.632.105.219.115.338.015.458a.31.31,0,0,1-.452-.027.691.691,0,0,1-.2-.34l-.165.091a.837.837,0,0,0,.241.368c.283.256.579.229.74.036.166-.174.157-.367.016-.642-.1-.211-.127-.339-.026-.448a.263.263,0,0,1,.395.027.821.821,0,0,1,.184.267l.157-.082A.863.863,0,0,0,1752.228,104.265Z" transform="translate(-1750.731 -104.1)" fill="#49a13b"/>
      </g>
      <g id="Grupo_35" data-name="Grupo 35" transform="translate(20.414 7.422)">
        <path id="Caminho_21" data-name="Caminho 21" d="M1753.218,105.216a.788.788,0,0,0-1.148.083.758.758,0,1,0,1.1,1.026A.741.741,0,0,0,1753.218,105.216Zm-.21.963c-.269.265-.614.357-.864.118a.587.587,0,0,1,.092-.842c.249-.256.6-.367.854-.119A.592.592,0,0,1,1753.008,106.179Z" transform="translate(-1751.797 -105.005)" fill="#49a13b"/>
      </g>
    </g>
    <g id="Grupo_37" data-name="Grupo 37" transform="translate(1751.01 108.348)">
      <path id="Caminho_22" data-name="Caminho 22" d="M1749.885,107.61a.15.15,0,0,1-.149.152.152.152,0,1,1,0-.3A.15.15,0,0,1,1749.885,107.61Z" transform="translate(-1749.578 -107.457)" fill="#fff"/>
    </g>
    <g id="Grupo_38" data-name="Grupo 38" transform="translate(1749.902 108.421)">
      <path id="Caminho_23" data-name="Caminho 23" d="M1748.813,107.682a.153.153,0,0,1-.307,0,.153.153,0,1,1,.307,0Z" transform="translate(-1748.506 -107.528)" fill="#fff"/>
    </g>
    <g id="Grupo_39" data-name="Grupo 39" transform="translate(1749.828 109.224)">
      <path id="Caminho_24" data-name="Caminho 24" d="M1748.7,108.439a.133.133,0,1,1-.131-.134A.134.134,0,0,1,1748.7,108.439Z" transform="translate(-1748.434 -108.305)" fill="#fff"/>
    </g>
    <g id="Grupo_40" data-name="Grupo 40" transform="translate(1749.636 109.701)">
      <path id="Caminho_25" data-name="Caminho 25" d="M1748.5,108.893a.126.126,0,0,1-.128.125.126.126,0,0,1,0-.251A.127.127,0,0,1,1748.5,108.893Z" transform="translate(-1748.248 -108.767)" fill="#fff"/>
    </g>
    <g id="Grupo_41" data-name="Grupo 41" transform="translate(1749.132 109.952)">
      <path id="Caminho_26" data-name="Caminho 26" d="M1748.01,109.136a.126.126,0,0,1-.127.127.127.127,0,0,1,0-.253A.127.127,0,0,1,1748.01,109.136Z" transform="translate(-1747.76 -109.01)" fill="#fff"/>
    </g>
    <g id="Grupo_42" data-name="Grupo 42" transform="translate(1748.423 110.138)">
      <path id="Caminho_27" data-name="Caminho 27" d="M1747.327,109.314a.127.127,0,1,1-.126-.124A.125.125,0,0,1,1747.327,109.314Z" transform="translate(-1747.074 -109.19)" fill="#fff"/>
    </g>
    <g id="Grupo_43" data-name="Grupo 43" transform="translate(1748.91 110.979)">
      <path id="Caminho_28" data-name="Caminho 28" d="M1747.852,110.158a.152.152,0,0,1-.151.153.153.153,0,1,1,.151-.153Z" transform="translate(-1747.545 -110.004)" fill="#fff"/>
    </g>
    <g id="Grupo_44" data-name="Grupo 44" transform="translate(1748.948 111.707)">
      <path id="Caminho_29" data-name="Caminho 29" d="M1747.889,110.86a.154.154,0,0,1-.15.153.152.152,0,1,1,0-.3A.153.153,0,0,1,1747.889,110.86Z" transform="translate(-1747.582 -110.708)" fill="#fff"/>
    </g>
    <g id="Grupo_45" data-name="Grupo 45" transform="translate(1746.453 110.179)">
      <path id="Caminho_30" data-name="Caminho 30" d="M1745.373,109.33a.1.1,0,0,1-.1.1.1.1,0,1,1,0-.2A.1.1,0,0,1,1745.373,109.33Z" transform="translate(-1745.167 -109.229)" fill="#fff"/>
    </g>
    <g id="Grupo_46" data-name="Grupo 46" transform="translate(1745.709 110.177)">
      <path id="Caminho_31" data-name="Caminho 31" d="M1744.648,109.33a.1.1,0,1,1-.2,0,.1.1,0,1,1,.2,0Z" transform="translate(-1744.447 -109.227)" fill="#fff"/>
    </g>
    <g id="Grupo_47" data-name="Grupo 47" transform="translate(1745.963 111.081)">
      <path id="Caminho_32" data-name="Caminho 32" d="M1744.9,110.205a.1.1,0,0,1-.1.1.1.1,0,0,1-.1-.1.1.1,0,0,1,.1-.1A.1.1,0,0,1,1744.9,110.205Z" transform="translate(-1744.693 -110.102)" fill="#fff"/>
    </g>
    <g id="Grupo_48" data-name="Grupo 48" transform="translate(1742.88 112.317)">
      <path id="Caminho_33" data-name="Caminho 33" d="M1742.012,111.452a.15.15,0,0,1-.149.153.153.153,0,1,1,0-.306A.15.15,0,0,1,1742.012,111.452Z" transform="translate(-1741.709 -111.299)" fill="#fff"/>
    </g>
    <g id="Grupo_49" data-name="Grupo 49" transform="translate(1742.728 108.651)">
      <path id="Caminho_34" data-name="Caminho 34" d="M1741.868,107.9a.153.153,0,0,1-.154.152.151.151,0,0,1-.152-.152.153.153,0,0,1,.152-.153A.155.155,0,0,1,1741.868,107.9Z" transform="translate(-1741.562 -107.75)" fill="#fff"/>
    </g>
    <g id="Grupo_50" data-name="Grupo 50" transform="translate(1743.681 107.507)">
      <path id="Caminho_35" data-name="Caminho 35" d="M1742.791,106.8a.154.154,0,0,1-.153.152.152.152,0,1,1,0-.3A.154.154,0,0,1,1742.791,106.8Z" transform="translate(-1742.484 -106.643)" fill="#fff"/>
    </g>
    <g id="Grupo_51" data-name="Grupo 51" transform="translate(1742.539 106.438)">
      <path id="Caminho_36" data-name="Caminho 36" d="M1741.681,105.761a.151.151,0,1,1-.153-.153A.151.151,0,0,1,1741.681,105.761Z" transform="translate(-1741.379 -105.608)" fill="#fff"/>
    </g>
    <g id="Grupo_52" data-name="Grupo 52" transform="translate(1741.432 107.202)">
      <path id="Caminho_37" data-name="Caminho 37" d="M1740.61,106.5a.153.153,0,0,1-.154.153.152.152,0,1,1,.154-.153Z" transform="translate(-1740.307 -106.348)" fill="#fff"/>
    </g>
    <g id="Grupo_53" data-name="Grupo 53" transform="translate(1742.097 107.793)">
      <path id="Caminho_38" data-name="Caminho 38" d="M1741.143,107.016a.1.1,0,0,1-.192,0,.1.1,0,1,1,.192,0Z" transform="translate(-1740.951 -106.92)" fill="#fff"/>
    </g>
    <g id="Grupo_54" data-name="Grupo 54" transform="translate(1745.477 103.613)">
      <path id="Caminho_39" data-name="Caminho 39" d="M1744.524,103.026a.15.15,0,1,1-.148-.152A.15.15,0,0,1,1744.524,103.026Z" transform="translate(-1744.223 -102.874)" fill="#fff"/>
    </g>
    <g id="Grupo_55" data-name="Grupo 55" transform="translate(1746.658 99.183)">
      <path id="Caminho_40" data-name="Caminho 40" d="M1745.673,98.74a.153.153,0,1,1-.153-.154A.154.154,0,0,1,1745.673,98.74Z" transform="translate(-1745.366 -98.586)" fill="#fff"/>
    </g>
    <g id="Grupo_56" data-name="Grupo 56" transform="translate(1738.874 104.49)">
      <path id="Caminho_41" data-name="Caminho 41" d="M1738.135,103.877a.151.151,0,1,1-.3,0,.151.151,0,1,1,.3,0Z" transform="translate(-1737.832 -103.723)" fill="#fff"/>
    </g>
    <g id="Grupo_57" data-name="Grupo 57" transform="translate(1737.575 110.101)">
      <path id="Caminho_42" data-name="Caminho 42" d="M1736.876,109.308a.151.151,0,0,1-.15.153.153.153,0,0,1,0-.307A.151.151,0,0,1,1736.876,109.308Z" transform="translate(-1736.574 -109.154)" fill="#fff"/>
    </g>
    <g id="Grupo_58" data-name="Grupo 58" transform="translate(1735.511 109.3)">
      <path id="Caminho_43" data-name="Caminho 43" d="M1734.806,108.493a.115.115,0,1,1-.115-.114A.113.113,0,0,1,1734.806,108.493Z" transform="translate(-1734.577 -108.379)" fill="#fff"/>
    </g>
    <g id="Grupo_59" data-name="Grupo 59" transform="translate(1735.587 108.347)">
      <path id="Caminho_44" data-name="Caminho 44" d="M1734.881,107.569a.116.116,0,1,1-.231,0,.116.116,0,0,1,.231,0Z" transform="translate(-1734.65 -107.456)" fill="#fff"/>
    </g>
    <g id="Grupo_60" data-name="Grupo 60" transform="translate(1735.004 107.535)">
      <path id="Caminho_45" data-name="Caminho 45" d="M1734.3,106.775a.1.1,0,0,1-.1.1.1.1,0,1,1,0-.21A.1.1,0,0,1,1734.3,106.775Z" transform="translate(-1734.086 -106.67)" fill="#fff"/>
    </g>
    <g id="Grupo_61" data-name="Grupo 61" transform="translate(1733.677 107.621)">
      <path id="Caminho_46" data-name="Caminho 46" d="M1733.109,106.907a.152.152,0,0,1-.154.153.153.153,0,0,1,0-.307A.152.152,0,0,1,1733.109,106.907Z" transform="translate(-1732.802 -106.753)" fill="#fff"/>
    </g>
    <g id="Grupo_62" data-name="Grupo 62" transform="translate(1732.618 108.241)">
      <path id="Caminho_47" data-name="Caminho 47" d="M1731.953,107.439a.088.088,0,0,1-.177,0,.088.088,0,0,1,.177,0Z" transform="translate(-1731.776 -107.354)" fill="#fff"/>
    </g>
    <g id="Grupo_63" data-name="Grupo 63" transform="translate(1732.609 101.895)">
      <path id="Caminho_48" data-name="Caminho 48" d="M1732.071,101.363a.151.151,0,0,1-.15.153.152.152,0,1,1,0-.3A.15.15,0,0,1,1732.071,101.363Z" transform="translate(-1731.768 -101.211)" fill="#fff"/>
    </g>
  </g>
</svg>
