<svg xmlns="http://www.w3.org/2000/svg" width="74.342" height="45.959" viewBox="0 0 74.342 45.959">
  <g id="Grupo_194" data-name="Grupo 194" transform="translate(-1811.229 -80.845)">
    <g id="Grupo_80" data-name="Grupo 80">
      <g id="Grupo_73" data-name="Grupo 73">
        <g id="Grupo_72" data-name="Grupo 72">
          <g id="Grupo_65" data-name="Grupo 65">
            <rect id="Retângulo_3" data-name="Retângulo 3" width="74.342" height="3.547" transform="translate(1811.229 94.984)" fill="#d01820"/>
          </g>
          <g id="Grupo_66" data-name="Grupo 66">
            <rect id="Retângulo_4" data-name="Retângulo 4" width="74.342" height="3.543" transform="translate(1811.229 87.913)" fill="#d01820"/>
          </g>
          <g id="Grupo_67" data-name="Grupo 67">
            <rect id="Retângulo_5" data-name="Retângulo 5" width="74.342" height="3.543" transform="translate(1811.229 80.845)" fill="#d01820"/>
          </g>
          <g id="Grupo_68" data-name="Grupo 68">
            <rect id="Retângulo_6" data-name="Retângulo 6" width="74.342" height="3.546" transform="translate(1811.229 102.062)" fill="#d01820"/>
          </g>
          <g id="Grupo_69" data-name="Grupo 69">
            <rect id="Retângulo_7" data-name="Retângulo 7" width="74.342" height="3.546" transform="translate(1811.229 109.125)" fill="#d01820"/>
          </g>
          <g id="Grupo_70" data-name="Grupo 70">
            <rect id="Retângulo_8" data-name="Retângulo 8" width="74.342" height="3.542" transform="translate(1811.229 116.202)" fill="#d01820"/>
          </g>
          <g id="Grupo_71" data-name="Grupo 71">
            <rect id="Retângulo_9" data-name="Retângulo 9" width="74.342" height="3.543" transform="translate(1811.229 123.261)" fill="#d01820"/>
          </g>
        </g>
      </g>
      <g id="Grupo_74" data-name="Grupo 74">
        <rect id="Retângulo_10" data-name="Retângulo 10" width="74.342" height="3.543" transform="translate(1811.229 91.451)" fill="#fff"/>
      </g>
      <g id="Grupo_75" data-name="Grupo 75">
        <rect id="Retângulo_11" data-name="Retângulo 11" width="74.342" height="3.543" transform="translate(1811.229 84.383)" fill="#fff"/>
      </g>
      <g id="Grupo_76" data-name="Grupo 76">
        <rect id="Retângulo_12" data-name="Retângulo 12" width="74.342" height="3.541" transform="translate(1811.229 98.528)" fill="#fff"/>
      </g>
      <g id="Grupo_77" data-name="Grupo 77">
        <rect id="Retângulo_13" data-name="Retângulo 13" width="74.342" height="3.543" transform="translate(1811.229 105.586)" fill="#fff"/>
      </g>
      <g id="Grupo_78" data-name="Grupo 78">
        <rect id="Retângulo_14" data-name="Retângulo 14" width="74.342" height="3.542" transform="translate(1811.229 112.664)" fill="#fff"/>
      </g>
      <g id="Grupo_79" data-name="Grupo 79">
        <rect id="Retângulo_15" data-name="Retângulo 15" width="74.342" height="3.543" transform="translate(1811.229 119.736)" fill="#fff"/>
      </g>
    </g>
    <g id="Grupo_81" data-name="Grupo 81">
      <rect id="Retângulo_16" data-name="Retângulo 16" width="27.799" height="21.403" transform="translate(1811.229 80.96)" fill="#0b3783"/>
    </g>
    <g id="Grupo_193" data-name="Grupo 193">
      <g id="Grupo_90" data-name="Grupo 90">
        <g id="Grupo_83" data-name="Grupo 83">
          <g id="Grupo_82" data-name="Grupo 82">
            <path id="Caminho_49" data-name="Caminho 49" d="M1834.461,85.21l.295.83-.7-.521,0,0,0,0-.7.521.294-.83.008,0h0l-.724-.486h.871l.238-.836.27.836h.883l-.729.486h0Z" fill="#fff"/>
          </g>
        </g>
        <g id="Grupo_85" data-name="Grupo 85">
          <g id="Grupo_84" data-name="Grupo 84">
            <path id="Caminho_50" data-name="Caminho 50" d="M1834.461,89.537l.295.826-.7-.517,0,0,0,0-.7.517.294-.826.008,0h0l-.724-.492h.871l.238-.834.27.834v0l0,0h.881l-.729.492h0Z" fill="#fff"/>
          </g>
        </g>
        <g id="Grupo_87" data-name="Grupo 87">
          <g id="Grupo_86" data-name="Grupo 86">
            <path id="Caminho_51" data-name="Caminho 51" d="M1834.461,93.862l.295.827-.7-.521,0,0,0,0-.7.521.294-.827.008-.009h0l-.724-.486h.871l.238-.836.27.836h.883l-.729.486h0Z" fill="#fff"/>
          </g>
        </g>
        <g id="Grupo_89" data-name="Grupo 89">
          <g id="Grupo_88" data-name="Grupo 88">
            <path id="Caminho_52" data-name="Caminho 52" d="M1834.461,98.184l.295.827-.7-.517,0,0,0,0-.7.517.294-.827.008,0h0l-.724-.491h.871l.238-.836.27.836v0l0,0h.881l-.729.491h0Z" fill="#fff"/>
          </g>
        </g>
      </g>
      <g id="Grupo_99" data-name="Grupo 99">
        <g id="Grupo_92" data-name="Grupo 92">
          <g id="Grupo_91" data-name="Grupo 91">
            <path id="Caminho_53" data-name="Caminho 53" d="M1829.865,85.21l.294.83-.7-.521,0,0,0,0-.7.521.3-.83.007,0h0l-.725-.486h.871l.238-.836.27.836h.879l-.725.486h0Z" fill="#fff"/>
          </g>
        </g>
        <g id="Grupo_94" data-name="Grupo 94">
          <g id="Grupo_93" data-name="Grupo 93">
            <path id="Caminho_54" data-name="Caminho 54" d="M1829.865,89.537l.294.826-.7-.517,0,0,0,0-.7.517.3-.826.007,0h0l-.725-.492h.871l.238-.834.27.834,0,0,0,0h.877l-.725.492h0Z" fill="#fff"/>
          </g>
        </g>
        <g id="Grupo_96" data-name="Grupo 96">
          <g id="Grupo_95" data-name="Grupo 95">
            <path id="Caminho_55" data-name="Caminho 55" d="M1829.865,93.862l.294.827-.7-.521,0,0,0,0-.7.521.3-.827.007-.009h0l-.725-.486h.871l.238-.836.27.836h.879l-.725.486h0Z" fill="#fff"/>
          </g>
        </g>
        <g id="Grupo_98" data-name="Grupo 98">
          <g id="Grupo_97" data-name="Grupo 97">
            <path id="Caminho_56" data-name="Caminho 56" d="M1829.865,98.184l.294.827-.7-.517,0,0,0,0-.7.517.3-.827.007,0h0l-.725-.491h.871l.238-.836.27.836,0,0,0,0h.877l-.725.491h0Z" fill="#fff"/>
          </g>
        </g>
      </g>
      <g id="Grupo_108" data-name="Grupo 108">
        <g id="Grupo_101" data-name="Grupo 101">
          <g id="Grupo_100" data-name="Grupo 100">
            <path id="Caminho_57" data-name="Caminho 57" d="M1825.264,85.21l.3.83-.705-.521,0,0v0l-.7.521.292-.83.011,0h-.006l-.725-.486h.873l.236-.836.271.836h.882l-.727.486h0Z" fill="#fff"/>
          </g>
        </g>
        <g id="Grupo_103" data-name="Grupo 103">
          <g id="Grupo_102" data-name="Grupo 102">
            <path id="Caminho_58" data-name="Caminho 58" d="M1825.264,89.537l.3.826-.705-.517,0,0v0l-.7.517.292-.826.011,0h-.006l-.725-.492h.873l.236-.834.271.834,0,0,0,0h.879l-.727.492h0Z" fill="#fff"/>
          </g>
        </g>
        <g id="Grupo_105" data-name="Grupo 105">
          <g id="Grupo_104" data-name="Grupo 104">
            <path id="Caminho_59" data-name="Caminho 59" d="M1825.264,93.862l.3.827-.705-.521,0,0v0l-.7.521.292-.827.011-.009h-.006l-.725-.486h.873l.236-.836.271.836h.882l-.727.486h0Z" fill="#fff"/>
          </g>
        </g>
        <g id="Grupo_107" data-name="Grupo 107">
          <g id="Grupo_106" data-name="Grupo 106">
            <path id="Caminho_60" data-name="Caminho 60" d="M1825.264,98.184l.3.827-.705-.517,0,0v0l-.7.517.292-.827.011,0h-.006l-.725-.491h.873l.236-.836.271.836,0,0,0,0h.879l-.727.491h0Z" fill="#fff"/>
          </g>
        </g>
      </g>
      <g id="Grupo_117" data-name="Grupo 117">
        <g id="Grupo_110" data-name="Grupo 110">
          <g id="Grupo_109" data-name="Grupo 109">
            <path id="Caminho_61" data-name="Caminho 61" d="M1820.742,85.21l.294.83-.7-.521v0l-.705.521.294-.83.009,0h0l-.725-.486h.873l.236-.836.272.836h.879l-.725.486h0Z" fill="#fff"/>
          </g>
        </g>
        <g id="Grupo_112" data-name="Grupo 112">
          <g id="Grupo_111" data-name="Grupo 111">
            <path id="Caminho_62" data-name="Caminho 62" d="M1820.742,89.537l.294.826-.7-.517v0l-.705.517.294-.826.009,0h0l-.725-.492h.873l.236-.834.272.834,0,0,0,0h.879l-.725.492h0Z" fill="#fff"/>
          </g>
        </g>
        <g id="Grupo_114" data-name="Grupo 114">
          <g id="Grupo_113" data-name="Grupo 113">
            <path id="Caminho_63" data-name="Caminho 63" d="M1820.742,93.862l.294.827-.7-.521v0l-.705.521.294-.827.009-.009h0l-.725-.486h.873l.236-.836.272.836h.879l-.725.486h0Z" fill="#fff"/>
          </g>
        </g>
        <g id="Grupo_116" data-name="Grupo 116">
          <g id="Grupo_115" data-name="Grupo 115">
            <path id="Caminho_64" data-name="Caminho 64" d="M1820.742,98.184l.294.827-.7-.517v0l-.705.517.294-.827.009,0h0l-.725-.491h.873l.236-.836.272.836,0,0,0,0h.879l-.725.491h0Z" fill="#fff"/>
          </g>
        </g>
      </g>
      <g id="Grupo_126" data-name="Grupo 126">
        <g id="Grupo_119" data-name="Grupo 119">
          <g id="Grupo_118" data-name="Grupo 118">
            <path id="Caminho_65" data-name="Caminho 65" d="M1816.215,85.21l.295.83-.7-.521,0,0v0l-.7.521.292-.83.009,0h0l-.725-.486h.872l.238-.836.271.836h.881l-.729.486h0Z" fill="#fff"/>
          </g>
        </g>
        <g id="Grupo_121" data-name="Grupo 121">
          <g id="Grupo_120" data-name="Grupo 120">
            <path id="Caminho_66" data-name="Caminho 66" d="M1816.215,89.537l.295.826-.7-.517,0,0v0l-.7.517.292-.826.009,0h0l-.725-.492h.872l.238-.834.271.834v0h.881l-.729.492h0Z" fill="#fff"/>
          </g>
        </g>
        <g id="Grupo_123" data-name="Grupo 123">
          <g id="Grupo_122" data-name="Grupo 122">
            <path id="Caminho_67" data-name="Caminho 67" d="M1816.215,93.862l.295.827-.7-.521,0,0v0l-.7.521.292-.827.009-.009h0l-.725-.486h.872l.238-.836.271.836h.881l-.729.486h0Z" fill="#fff"/>
          </g>
        </g>
        <g id="Grupo_125" data-name="Grupo 125">
          <g id="Grupo_124" data-name="Grupo 124">
            <path id="Caminho_68" data-name="Caminho 68" d="M1816.215,98.184l.295.827-.7-.517,0,0v0l-.7.517.292-.827.009,0h0l-.725-.491h.872l.238-.836.271.836v0h.881l-.729.491h0Z" fill="#fff"/>
          </g>
        </g>
      </g>
      <g id="Grupo_137" data-name="Grupo 137">
        <g id="Grupo_128" data-name="Grupo 128">
          <g id="Grupo_127" data-name="Grupo 127">
            <path id="Caminho_69" data-name="Caminho 69" d="M1836.693,87.371l.291.826-.7-.517v0l-.7.517.293-.826.01-.008h-.006l-.725-.488h.873l.236-.834.271.834v0h.882l-.728.488h0Z" fill="#fff"/>
          </g>
        </g>
        <g id="Grupo_130" data-name="Grupo 130">
          <g id="Grupo_129" data-name="Grupo 129">
            <path id="Caminho_70" data-name="Caminho 70" d="M1836.693,91.7l.291.826-.7-.521h0l-.7.521.293-.826.01-.008h-.006l-.725-.488h.873l.236-.836.271.836h.883l-.728.488h0Z" fill="#fff"/>
          </g>
        </g>
        <g id="Grupo_132" data-name="Grupo 132">
          <g id="Grupo_131" data-name="Grupo 131">
            <path id="Caminho_71" data-name="Caminho 71" d="M1836.693,96.023l.291.831-.7-.521v0l-.7.521.293-.831.01,0h-.006l-.725-.493.873,0,.236-.834.271.829v0h0l.882,0-.728.493h0Z" fill="#fff"/>
          </g>
        </g>
        <g id="Grupo_134" data-name="Grupo 134">
          <g id="Grupo_133" data-name="Grupo 133">
            <path id="Caminho_72" data-name="Caminho 72" d="M1836.693,100.354l.291.831-.7-.521v0l-.7.521.293-.831.01,0h-.006l-.725-.488h.873l.236-.834.271.834v0h.882l-.728.488h0Z" fill="#fff"/>
          </g>
        </g>
        <g id="Grupo_136" data-name="Grupo 136">
          <g id="Grupo_135" data-name="Grupo 135">
            <path id="Caminho_73" data-name="Caminho 73" d="M1836.693,83.065l.291.826-.7-.517v0l-.7.517.293-.826.01-.008h-.006l-.725-.488h.873l.236-.834.271.834v0h.882l-.728.488h0Z" fill="#fff"/>
          </g>
        </g>
      </g>
      <g id="Grupo_148" data-name="Grupo 148">
        <g id="Grupo_139" data-name="Grupo 139">
          <g id="Grupo_138" data-name="Grupo 138">
            <path id="Caminho_74" data-name="Caminho 74" d="M1832.2,87.371l.294.826-.7-.517v0l-.7.517.293-.826.009-.008h0l-.725-.488h.873l.236-.834.271.834v0h.879l-.725.488h0Z" fill="#fff"/>
          </g>
        </g>
        <g id="Grupo_141" data-name="Grupo 141">
          <g id="Grupo_140" data-name="Grupo 140">
            <path id="Caminho_75" data-name="Caminho 75" d="M1832.2,91.7l.294.826-.7-.521h0l-.7.521.293-.826.009-.008h0l-.725-.488h.873l.236-.836.271.836h.88l-.725.488h0Z" fill="#fff"/>
          </g>
        </g>
        <g id="Grupo_143" data-name="Grupo 143">
          <g id="Grupo_142" data-name="Grupo 142">
            <path id="Caminho_76" data-name="Caminho 76" d="M1832.2,96.023l.294.831-.7-.521v0l-.7.521.293-.831.009,0h0l-.725-.493.873,0,.236-.834.271.829v0h0l.879,0-.725.493h0Z" fill="#fff"/>
          </g>
        </g>
        <g id="Grupo_145" data-name="Grupo 145">
          <g id="Grupo_144" data-name="Grupo 144">
            <path id="Caminho_77" data-name="Caminho 77" d="M1832.2,100.354l.294.831-.7-.521v0l-.7.521.293-.831.009,0h0l-.725-.488h.873l.236-.834.271.834v0h.879l-.725.488h0Z" fill="#fff"/>
          </g>
        </g>
        <g id="Grupo_147" data-name="Grupo 147">
          <g id="Grupo_146" data-name="Grupo 146">
            <path id="Caminho_78" data-name="Caminho 78" d="M1832.2,83.065l.294.826-.7-.517v0l-.7.517.293-.826.009-.008h0l-.725-.488h.873l.236-.834.271.834v0h.879l-.725.488h0Z" fill="#fff"/>
          </g>
        </g>
      </g>
      <g id="Grupo_159" data-name="Grupo 159">
        <g id="Grupo_150" data-name="Grupo 150">
          <g id="Grupo_149" data-name="Grupo 149">
            <path id="Caminho_79" data-name="Caminho 79" d="M1827.519,87.371l.3.826-.705-.517,0,0v0l-.7.517.295-.826.007-.008h0l-.723-.488h.868l.242-.834.267.834v0l0,0h.876l-.725.488h0Z" fill="#fff"/>
          </g>
        </g>
        <g id="Grupo_152" data-name="Grupo 152">
          <g id="Grupo_151" data-name="Grupo 151">
            <path id="Caminho_80" data-name="Caminho 80" d="M1827.519,91.7l.3.826L1827.11,92h0l-.7.521.295-.826.007-.008h0l-.723-.488h.868l.242-.836.267.836h.88l-.725.488h0Z" fill="#fff"/>
          </g>
        </g>
        <g id="Grupo_154" data-name="Grupo 154">
          <g id="Grupo_153" data-name="Grupo 153">
            <path id="Caminho_81" data-name="Caminho 81" d="M1827.519,96.023l.3.831-.705-.521,0,0v0l-.7.521.295-.831.007,0h0l-.723-.493.868,0,.242-.834.267.829v0h0l.876,0-.725.493h0Z" fill="#fff"/>
          </g>
        </g>
        <g id="Grupo_156" data-name="Grupo 156">
          <g id="Grupo_155" data-name="Grupo 155">
            <path id="Caminho_82" data-name="Caminho 82" d="M1827.519,100.354l.3.831-.705-.521,0,0v0l-.7.521.295-.831.007,0h0l-.723-.488h.868l.242-.834.267.834v0l0,0h.876l-.725.488h0Z" fill="#fff"/>
          </g>
        </g>
        <g id="Grupo_158" data-name="Grupo 158">
          <g id="Grupo_157" data-name="Grupo 157">
            <path id="Caminho_83" data-name="Caminho 83" d="M1827.519,83.065l.3.826-.705-.517,0,0v0l-.7.517.295-.826.007-.008h0l-.723-.488h.868l.242-.834.267.834v0l0,0h.876l-.725.488h0Z" fill="#fff"/>
          </g>
        </g>
      </g>
      <g id="Grupo_170" data-name="Grupo 170">
        <g id="Grupo_161" data-name="Grupo 161">
          <g id="Grupo_160" data-name="Grupo 160">
            <path id="Caminho_84" data-name="Caminho 84" d="M1822.946,87.371l.293.826-.7-.517-.005,0v0l-.7.517.295-.826.006-.008h0l-.721-.488h.869l.237-.834.272.834v0h.882l-.727.488h0Z" fill="#fff"/>
          </g>
        </g>
        <g id="Grupo_163" data-name="Grupo 163">
          <g id="Grupo_162" data-name="Grupo 162">
            <path id="Caminho_85" data-name="Caminho 85" d="M1822.946,91.7l.293.826-.7-.521h-.005l-.7.521.295-.826.006-.008h0l-.721-.488h.869l.237-.836.272.836h.882l-.727.488h0Z" fill="#fff"/>
          </g>
        </g>
        <g id="Grupo_165" data-name="Grupo 165">
          <g id="Grupo_164" data-name="Grupo 164">
            <path id="Caminho_86" data-name="Caminho 86" d="M1822.946,96.023l.293.831-.7-.521-.005,0v0l-.7.521.295-.831.006,0h0l-.721-.493.869,0,.237-.834.272.829v0h0l.882,0-.727.493h0Z" fill="#fff"/>
          </g>
        </g>
        <g id="Grupo_167" data-name="Grupo 167">
          <g id="Grupo_166" data-name="Grupo 166">
            <path id="Caminho_87" data-name="Caminho 87" d="M1822.946,100.354l.293.831-.7-.521-.005,0v0l-.7.521.295-.831.006,0h0l-.721-.488h.869l.237-.834.272.834v0h.882l-.727.488h0Z" fill="#fff"/>
          </g>
        </g>
        <g id="Grupo_169" data-name="Grupo 169">
          <g id="Grupo_168" data-name="Grupo 168">
            <path id="Caminho_88" data-name="Caminho 88" d="M1822.946,83.065l.293.826-.7-.517-.005,0v0l-.7.517.295-.826.006-.008h0l-.721-.488h.869l.237-.834.272.834v0h.882l-.727.488h0Z" fill="#fff"/>
          </g>
        </g>
      </g>
      <g id="Grupo_181" data-name="Grupo 181">
        <g id="Grupo_172" data-name="Grupo 172">
          <g id="Grupo_171" data-name="Grupo 171">
            <path id="Caminho_89" data-name="Caminho 89" d="M1818.47,87.371l.294.826-.7-.517,0,0,0,0-.7.517.295-.826.008-.008h0l-.725-.488h.869l.24-.834.271.834v0h.879l-.726.488h0Z" fill="#fff"/>
          </g>
        </g>
        <g id="Grupo_174" data-name="Grupo 174">
          <g id="Grupo_173" data-name="Grupo 173">
            <path id="Caminho_90" data-name="Caminho 90" d="M1818.47,91.7l.294.826-.7-.521h0l-.7.521.295-.826.008-.008h0l-.725-.488h.869l.24-.836.271.836h.88l-.726.488h0Z" fill="#fff"/>
          </g>
        </g>
        <g id="Grupo_176" data-name="Grupo 176">
          <g id="Grupo_175" data-name="Grupo 175">
            <path id="Caminho_91" data-name="Caminho 91" d="M1818.47,96.023l.294.831-.7-.521,0,0,0,0-.7.521.295-.831.008,0h0l-.725-.493.869,0,.24-.834.271.829v0h0l.879,0-.726.493h0Z" fill="#fff"/>
          </g>
        </g>
        <g id="Grupo_178" data-name="Grupo 178">
          <g id="Grupo_177" data-name="Grupo 177">
            <path id="Caminho_92" data-name="Caminho 92" d="M1818.47,100.354l.294.831-.7-.521,0,0,0,0-.7.521.295-.831.008,0h0l-.725-.488h.869l.24-.834.271.834v0h.879l-.726.488h0Z" fill="#fff"/>
          </g>
        </g>
        <g id="Grupo_180" data-name="Grupo 180">
          <g id="Grupo_179" data-name="Grupo 179">
            <path id="Caminho_93" data-name="Caminho 93" d="M1818.47,83.065l.294.826-.7-.517,0,0,0,0-.7.517.295-.826.008-.008h0l-.725-.488h.869l.24-.834.271.834v0h.879l-.726.488h0Z" fill="#fff"/>
          </g>
        </g>
      </g>
      <g id="Grupo_192" data-name="Grupo 192">
        <g id="Grupo_183" data-name="Grupo 183">
          <g id="Grupo_182" data-name="Grupo 182">
            <path id="Caminho_94" data-name="Caminho 94" d="M1813.917,87.371l.294.826-.7-.517,0,0v0l-.7.517.3-.826.007-.008h0l-.729-.488h.872l.238-.834.271.834v0h.881l-.725.488h0Z" fill="#fff"/>
          </g>
        </g>
        <g id="Grupo_185" data-name="Grupo 185">
          <g id="Grupo_184" data-name="Grupo 184">
            <path id="Caminho_95" data-name="Caminho 95" d="M1813.917,91.7l.294.826-.7-.521h0l-.7.521.3-.826.007-.008h0l-.729-.488h.872l.238-.836.271.836h.881l-.725.488h0Z" fill="#fff"/>
          </g>
        </g>
        <g id="Grupo_187" data-name="Grupo 187">
          <g id="Grupo_186" data-name="Grupo 186">
            <path id="Caminho_96" data-name="Caminho 96" d="M1813.917,96.023l.294.831-.7-.521,0,0v0l-.7.521.3-.831.007,0h0l-.729-.493.872,0,.238-.834.271.829v0h0l.881,0-.725.493h0Z" fill="#fff"/>
          </g>
        </g>
        <g id="Grupo_189" data-name="Grupo 189">
          <g id="Grupo_188" data-name="Grupo 188">
            <path id="Caminho_97" data-name="Caminho 97" d="M1813.917,100.354l.294.831-.7-.521,0,0v0l-.7.521.3-.831.007,0h0l-.729-.488h.872l.238-.834.271.834v0h.881l-.725.488h0Z" fill="#fff"/>
          </g>
        </g>
        <g id="Grupo_191" data-name="Grupo 191">
          <g id="Grupo_190" data-name="Grupo 190">
            <path id="Caminho_98" data-name="Caminho 98" d="M1813.917,83.065l.294.826-.7-.517,0,0v0l-.7.517.3-.826.007-.008h0l-.729-.488h.872l.238-.834.271.834v0h.881l-.725.488h0Z" fill="#fff"/>
          </g>
        </g>
      </g>
    </g>
  </g>
</svg>
