<svg xmlns="http://www.w3.org/2000/svg" width="71" height="71" viewBox="0 0 71 71">
  <g id="Grupo_351" data-name="Grupo 351" transform="translate(-304 -5590.147)">
    <g id="Grupo_348" data-name="Grupo 348" transform="translate(0 317)">
      <rect id="Retângulo_27" data-name="Retângulo 27" width="71" height="71" transform="translate(304 5273.147)" fill="#a99e88"/>
    </g>
    <g id="facebook-logo_1_" data-name="facebook-logo (1)" transform="translate(305.923 5605.843)">
      <path id="Caminho_156" data-name="Caminho 156" d="M44.156.009,38.653,0C32.471,0,28.475,4.1,28.475,10.444v4.815H22.942a.865.865,0,0,0-.865.866V23.1a.865.865,0,0,0,.865.865h5.533v17.6a.865.865,0,0,0,.865.865H36.56a.865.865,0,0,0,.865-.865v-17.6h6.469a.865.865,0,0,0,.865-.865l0-6.977a.866.866,0,0,0-.866-.866H37.425V11.177c0-1.962.468-2.958,3.023-2.958h3.707a.865.865,0,0,0,.865-.865V.874A.866.866,0,0,0,44.156.009Z" fill="#fff"/>
    </g>
  </g>
</svg>
