<svg xmlns="http://www.w3.org/2000/svg" width="1772.459" height="93.404" viewBox="0 0 1772.459 93.404">
  <g id="Grupo_347" data-name="Grupo 347" transform="translate(-234 -1717)">
    <g id="Grupo_260" data-name="Grupo 260" transform="translate(81 -25.002)">
      <g id="Grupo_259" data-name="Grupo 259">
        <g id="Grupo_258" data-name="Grupo 258">
          <path id="Caminho_127" data-name="Caminho 127" d="M153,1754.746a52.834,52.834,0,0,0,4.325,10.388c3.175,5.914,10.634,9.947,12.965,9.333,2.359-.6,1.431.833,1.431.833s-3.161,2.119-9.53-.68a71.588,71.588,0,0,0,20.159,19.269c.26.155,11.035,11.738,25.962,19.54,14.887,7.8,21.163,7.7,24.806,8.721,3.63,1,13.314.221,13.314.221s-10.581,2.748-7.889,3.567c2.733.815,13.927,1.527,13.927,1.527a43.023,43.023,0,0,0,15.506-1.843c24.459,8.411,44.861,9.2,47.36,9.784a20.717,20.717,0,0,0,3.834-3c-.031.059-.662-1.423-1.748-1.5-.541-.042-1.193-.1-1.942-.169-9.575-.91-34.845-2.761-40.3-5.963,3.126-10.154-12.912-25.166-15.611-25.82-2.3-1.344-8.769-4.025-15.25-9.116a72.545,72.545,0,0,0-11.36-7.53s.467,1.783,3.053,5.458c-.636,3.8-1.883.482-1.883.482l-5.74-7.869s-1.318-5.066-11.2-9.828-23.986-14.943-23.986-14.943-13.4-10.382-18.5-12.265c-5.1-1.863-14.722-1.377-16.535-.9s-4.574,3.958-3.859,3.756c.713-.176,1.151,1.291,1.151,1.291s.282,1.12-1.693,2.12C154.861,1751.006,153,1754.746,153,1754.746Zm16.109,3.224,90.043,61.258C199.7,1782.89,199.865,1783.005,169.109,1757.97Z" fill="#fff"/>
        </g>
      </g>
    </g>
    <path id="Caminho_129" data-name="Caminho 129" d="M1608.339,0H0" transform="translate(398.12 1807.977)" fill="none" stroke="#fff" stroke-width="4"/>
  </g>
</svg>
