<svg width="700" height="543" viewBox="0 0 700 543" fill="none" xmlns="http://www.w3.org/2000/svg">
<path d="M426.012 543C404.726 543 385.884 539.837 369.488 533.511C353.092 526.898 339.285 517.841 328.066 506.339C317.711 495.701 309.944 483.912 304.767 470.973C299.589 457.746 297 444.088 297 429.999C297 410.734 301.89 393.339 311.67 377.812C320.3 364.01 331.087 354.09 344.031 348.052C367.043 307.222 387.035 265.817 404.006 223.837C420.978 181.857 437.23 135.995 452.763 86.252L583.501 69C586.953 143.759 590.117 201.122 592.994 241.089C595.87 282.207 598.315 312.398 600.329 331.662C602.055 354.09 602.918 373.642 602.918 390.319C602.918 405.271 601.767 416.485 599.466 423.961C625.93 408.434 647.072 393.626 662.893 379.537H700C679.001 403.977 657.284 424.967 634.847 442.507C612.698 460.046 589.398 475.861 564.948 489.95C547.401 508.352 525.395 522.01 498.931 530.924C475.919 538.975 451.613 543 426.012 543ZM397.966 473.129C420.115 473.129 437.806 467.091 451.037 455.015C466.858 440.638 474.769 419.36 474.769 391.182C474.769 379.393 474.05 364.585 472.611 346.758L470.454 320.449C467.865 297.733 465.276 271.424 462.687 241.52L457.941 182.001C449.599 208.742 439.675 235.338 428.169 261.792C416.663 287.957 402.712 316.998 386.316 348.914C399.835 356.39 406.595 366.598 406.595 379.537C406.595 391.038 403.143 400.958 396.24 409.297C388.761 418.498 379.268 423.098 367.762 423.098C362.009 423.098 357.119 422.379 353.092 420.942C349.353 419.217 346.332 416.054 344.031 411.453C344.031 432.731 348.202 448.401 356.544 458.465C364.886 468.241 378.693 473.129 397.966 473.129Z" fill="url(#paint0_linear_12_62)"/>
<path d="M145.685 479C99.855 479 64.496 467.487 39.6082 444.461C13.2027 419.92 0 382.2 0 331.301C0 312.213 1.97282 291.005 5.91846 267.676C9.56059 244.348 15.1755 221.019 22.7633 197.69C31.2616 171.634 42.0362 146.942 55.0872 123.613C68.4417 100.284 83.9207 79.6818 101.524 61.8064C142.195 20.6021 192.274 0 251.762 0C289.701 0 317.32 9.08918 334.621 27.2676C347.975 41.5073 354.652 62.1094 354.652 89.074C354.652 115.433 348.886 140.276 337.352 163.605C325.819 186.631 309.884 207.082 289.549 224.957C269.214 242.53 246.147 256.618 220.349 267.222C194.55 277.523 167.841 283.583 140.222 285.4C138.704 301.155 137.946 313.577 137.946 322.666C137.946 352.963 143.712 373.868 155.246 385.381C165.262 395.682 181.955 400.833 205.325 400.833C239.015 400.833 269.821 391.744 297.744 373.565C309.581 365.991 320.963 357.053 331.889 346.752C342.815 336.148 355.563 322.818 370.131 306.76H402C372.559 356.447 338.718 395.985 300.476 425.374C253.431 461.125 201.835 479 145.685 479ZM147.506 240.863C164.806 239.651 181.651 234.652 198.041 225.866C214.43 217.08 228.999 205.567 241.746 191.327C254.494 176.785 264.51 160.576 271.794 142.7C279.078 124.522 282.72 106.04 282.72 87.2562C282.72 74.8343 280.899 65.4421 277.257 59.0797C273.918 52.4143 268 49.0816 259.502 49.0816C248.272 49.0816 236.89 54.5351 225.357 65.4421C214.127 76.3491 203.2 91.3463 192.578 110.434C182.865 128.309 174.063 148.608 166.172 171.331C158.281 194.054 152.059 217.231 147.506 240.863Z" fill="url(#paint1_linear_12_62)"/>
<defs>
<linearGradient id="paint0_linear_12_62" x1="805.5" y1="-2.21899e-05" x2="-131" y2="456.5" gradientUnits="userSpaceOnUse">
<stop offset="0.095" stop-color="#E6E6E6"/>
<stop offset="1" stop-color="#7624F3"/>
</linearGradient>
<linearGradient id="paint1_linear_12_62" x1="805.5" y1="-2.21899e-05" x2="-131" y2="456.5" gradientUnits="userSpaceOnUse">
<stop offset="0.095" stop-color="#E6E6E6"/>
<stop offset="1" stop-color="#7624F3"/>
</linearGradient>
</defs>
</svg>
