<svg width="626" height="192" viewBox="0 0 626 192" fill="none" xmlns="http://www.w3.org/2000/svg">
<path d="M132.781 192C130.228 192 127.98 191.502 126.037 190.506C124.122 189.509 122.637 188.153 121.582 186.438C120.527 184.694 120 182.716 120 180.502C120 178.26 120.513 176.282 121.54 174.566C122.595 172.823 124.024 171.467 125.829 170.498C127.633 169.502 129.673 169.004 131.949 169.004C134.141 169.004 136.112 169.474 137.86 170.415C139.637 171.328 141.038 172.657 142.065 174.4C143.092 176.116 143.606 178.177 143.606 180.585C143.606 180.834 143.592 181.125 143.564 181.457C143.536 181.761 143.508 182.052 143.481 182.328H125.287V178.551H140.067L137.569 179.672C137.569 178.509 137.333 177.499 136.861 176.642C136.389 175.784 135.737 175.119 134.904 174.649C134.072 174.151 133.1 173.902 131.99 173.902C130.88 173.902 129.895 174.151 129.034 174.649C128.202 175.119 127.549 175.797 127.078 176.683C126.606 177.541 126.37 178.565 126.37 179.755V180.751C126.37 181.969 126.633 183.048 127.161 183.989C127.716 184.902 128.479 185.608 129.451 186.106C130.45 186.576 131.615 186.811 132.948 186.811C134.141 186.811 135.182 186.631 136.07 186.272C136.986 185.912 137.819 185.372 138.568 184.653L142.024 188.389C140.997 189.551 139.706 190.45 138.152 191.087C136.597 191.696 134.807 192 132.781 192Z" fill="white"/>
<path d="M157.13 192C155.215 192 153.37 191.779 151.593 191.336C149.845 190.865 148.457 190.284 147.43 189.592L149.595 184.943C150.622 185.58 151.829 186.106 153.217 186.521C154.632 186.908 156.02 187.102 157.38 187.102C158.879 187.102 159.934 186.922 160.544 186.562C161.183 186.203 161.502 185.704 161.502 185.068C161.502 184.542 161.252 184.155 160.752 183.906C160.281 183.629 159.642 183.421 158.837 183.283C158.032 183.145 157.144 183.006 156.173 182.868C155.229 182.73 154.272 182.55 153.3 182.328C152.329 182.079 151.441 181.719 150.636 181.249C149.831 180.779 149.179 180.142 148.679 179.34C148.207 178.537 147.971 177.499 147.971 176.226C147.971 174.815 148.374 173.57 149.179 172.491C150.011 171.411 151.205 170.567 152.759 169.958C154.313 169.322 156.173 169.004 158.338 169.004C159.864 169.004 161.418 169.17 163.001 169.502C164.583 169.834 165.901 170.318 166.956 170.955L164.791 175.562C163.708 174.926 162.612 174.497 161.502 174.275C160.419 174.026 159.365 173.902 158.338 173.902C156.894 173.902 155.84 174.096 155.174 174.483C154.507 174.87 154.174 175.369 154.174 175.977C154.174 176.531 154.41 176.946 154.882 177.223C155.382 177.499 156.034 177.721 156.839 177.887C157.644 178.053 158.518 178.205 159.462 178.343C160.433 178.454 161.405 178.634 162.376 178.883C163.347 179.132 164.222 179.492 164.999 179.962C165.804 180.405 166.456 181.028 166.956 181.83C167.455 182.605 167.705 183.629 167.705 184.902C167.705 186.286 167.289 187.517 166.456 188.596C165.623 189.648 164.416 190.478 162.834 191.087C161.28 191.696 159.379 192 157.13 192Z" fill="white"/>
<path d="M182.537 192C179.9 192 177.846 191.336 176.375 190.008C174.904 188.652 174.168 186.645 174.168 183.989V164.396H180.663V183.906C180.663 184.847 180.913 185.58 181.413 186.106C181.912 186.604 182.592 186.853 183.452 186.853C184.479 186.853 185.354 186.576 186.075 186.023L187.824 190.589C187.158 191.059 186.353 191.419 185.409 191.668C184.493 191.889 183.536 192 182.537 192ZM170.713 174.815V169.834H186.242V174.815H170.713Z" fill="white"/>
<path d="M202.586 192C200.726 192 199.061 191.64 197.59 190.921C196.146 190.201 195.022 189.108 194.217 187.642C193.413 186.147 193.01 184.252 193.01 181.955V169.336H199.505V181C199.505 182.854 199.893 184.224 200.67 185.109C201.475 185.967 202.599 186.396 204.043 186.396C205.042 186.396 205.93 186.189 206.707 185.774C207.484 185.331 208.095 184.667 208.539 183.781C208.983 182.868 209.205 181.733 209.205 180.377V169.336H215.7V191.668H209.538V185.525L210.662 187.309C209.913 188.859 208.803 190.035 207.332 190.838C205.888 191.613 204.306 192 202.586 192ZM200.546 166.472L206.166 160.494H213.16L205.625 166.472H200.546Z" fill="white"/>
<path d="M232.999 192C230.89 192 228.988 191.53 227.295 190.589C225.602 189.62 224.256 188.278 223.257 186.562C222.286 184.847 221.8 182.826 221.8 180.502C221.8 178.15 222.286 176.116 223.257 174.4C224.256 172.684 225.602 171.356 227.295 170.415C228.988 169.474 230.89 169.004 232.999 169.004C234.886 169.004 236.538 169.419 237.953 170.249C239.369 171.079 240.465 172.338 241.242 174.026C242.019 175.714 242.408 177.873 242.408 180.502C242.408 183.103 242.033 185.262 241.284 186.977C240.535 188.665 239.452 189.925 238.037 190.755C236.649 191.585 234.97 192 232.999 192ZM234.123 186.687C235.178 186.687 236.135 186.438 236.996 185.94C237.856 185.442 238.536 184.736 239.036 183.823C239.563 182.882 239.827 181.775 239.827 180.502C239.827 179.201 239.563 178.094 239.036 177.181C238.536 176.268 237.856 175.562 236.996 175.064C236.135 174.566 235.178 174.317 234.123 174.317C233.041 174.317 232.069 174.566 231.209 175.064C230.348 175.562 229.655 176.268 229.127 177.181C228.628 178.094 228.378 179.201 228.378 180.502C228.378 181.775 228.628 182.882 229.127 183.823C229.655 184.736 230.348 185.442 231.209 185.94C232.069 186.438 233.041 186.687 234.123 186.687ZM239.993 191.668V187.102L240.118 180.46L239.702 173.86V160.868H246.197V191.668H239.993Z" fill="white"/>
<path d="M253.873 191.668V169.336H260.368V191.668H253.873ZM257.12 166.223C255.927 166.223 254.955 165.877 254.206 165.185C253.457 164.493 253.082 163.635 253.082 162.611C253.082 161.587 253.457 160.73 254.206 160.038C254.955 159.346 255.927 159 257.12 159C258.314 159 259.285 159.332 260.035 159.996C260.784 160.633 261.159 161.463 261.159 162.487C261.159 163.566 260.784 164.465 260.035 165.185C259.313 165.877 258.341 166.223 257.12 166.223Z" fill="white"/>
<path d="M278.718 192C276.331 192 274.208 191.502 272.349 190.506C270.517 189.509 269.06 188.153 267.977 186.438C266.923 184.694 266.395 182.716 266.395 180.502C266.395 178.26 266.923 176.282 267.977 174.566C269.06 172.823 270.517 171.467 272.349 170.498C274.208 169.502 276.331 169.004 278.718 169.004C281.078 169.004 283.187 169.502 285.047 170.498C286.906 171.467 288.363 172.809 289.418 174.525C290.473 176.24 291 178.233 291 180.502C291 182.716 290.473 184.694 289.418 186.438C288.363 188.153 286.906 189.509 285.047 190.506C283.187 191.502 281.078 192 278.718 192ZM278.718 186.687C279.801 186.687 280.772 186.438 281.633 185.94C282.493 185.442 283.173 184.736 283.673 183.823C284.172 182.882 284.422 181.775 284.422 180.502C284.422 179.201 284.172 178.094 283.673 177.181C283.173 176.268 282.493 175.562 281.633 175.064C280.772 174.566 279.801 174.317 278.718 174.317C277.636 174.317 276.665 174.566 275.804 175.064C274.944 175.562 274.25 176.268 273.723 177.181C273.223 178.094 272.973 179.201 272.973 180.502C272.973 181.775 273.223 182.882 273.723 183.823C274.25 184.736 274.944 185.442 275.804 185.94C276.665 186.438 277.636 186.687 278.718 186.687Z" fill="white"/>
<path d="M325.434 192C323.03 192 320.888 191.516 319.01 190.547C317.131 189.551 315.653 188.181 314.575 186.438C313.525 184.694 313 182.716 313 180.502C313 178.26 313.525 176.282 314.575 174.566C315.653 172.823 317.131 171.467 319.01 170.498C320.888 169.502 323.03 169.004 325.434 169.004C327.782 169.004 329.827 169.502 331.568 170.498C333.308 171.467 334.593 172.864 335.422 174.691L330.407 177.389C329.827 176.337 329.095 175.562 328.211 175.064C327.354 174.566 326.415 174.317 325.392 174.317C324.287 174.317 323.292 174.566 322.408 175.064C321.524 175.562 320.819 176.268 320.294 177.181C319.797 178.094 319.548 179.201 319.548 180.502C319.548 181.803 319.797 182.909 320.294 183.823C320.819 184.736 321.524 185.442 322.408 185.94C323.292 186.438 324.287 186.687 325.392 186.687C326.415 186.687 327.354 186.452 328.211 185.981C329.095 185.483 329.827 184.694 330.407 183.615L335.422 186.355C334.593 188.153 333.308 189.551 331.568 190.547C329.827 191.516 327.782 192 325.434 192Z" fill="white"/>
<path d="M340.803 191.668V169.336H346.978V175.645L346.108 173.819C346.771 172.242 347.835 171.052 349.299 170.249C350.763 169.419 352.546 169.004 354.645 169.004V174.981C354.369 174.953 354.12 174.94 353.899 174.94C353.678 174.912 353.444 174.898 353.195 174.898C351.427 174.898 349.99 175.41 348.885 176.434C347.807 177.43 347.268 178.994 347.268 181.125V191.668H340.803Z" fill="white"/>
<path d="M360.188 191.668V169.336H366.654V191.668H360.188ZM363.421 166.223C362.233 166.223 361.266 165.877 360.52 165.185C359.774 164.493 359.401 163.635 359.401 162.611C359.401 161.587 359.774 160.73 360.52 160.038C361.266 159.346 362.233 159 363.421 159C364.609 159 365.576 159.332 366.322 159.996C367.068 160.633 367.441 161.463 367.441 162.487C367.441 163.566 367.068 164.465 366.322 165.185C365.604 165.877 364.637 166.223 363.421 166.223Z" fill="white"/>
<path d="M387.989 191.668V187.309L387.575 186.355V178.551C387.575 177.167 387.146 176.088 386.29 175.313C385.461 174.538 384.176 174.151 382.435 174.151C381.247 174.151 380.073 174.345 378.913 174.732C377.78 175.092 376.813 175.59 376.011 176.226L373.69 171.702C374.906 170.844 376.371 170.18 378.084 169.709C379.797 169.239 381.537 169.004 383.306 169.004C386.704 169.004 389.343 169.806 391.222 171.411C393.101 173.016 394.04 175.521 394.04 178.925V191.668H387.989ZM381.192 192C379.451 192 377.959 191.709 376.716 191.128C375.473 190.519 374.519 189.703 373.856 188.679C373.193 187.655 372.861 186.507 372.861 185.234C372.861 183.906 373.179 182.743 373.815 181.747C374.478 180.751 375.514 179.976 376.923 179.423C378.332 178.842 380.17 178.551 382.435 178.551H388.362V182.328H383.14C381.62 182.328 380.57 182.577 379.99 183.075C379.438 183.574 379.161 184.196 379.161 184.943C379.161 185.774 379.479 186.438 380.114 186.936C380.778 187.406 381.676 187.642 382.808 187.642C383.886 187.642 384.853 187.392 385.71 186.894C386.566 186.369 387.188 185.608 387.575 184.611L388.569 187.6C388.1 189.039 387.243 190.132 386 190.879C384.756 191.626 383.154 192 381.192 192Z" fill="white"/>
<path d="M410.668 192C408.043 192 405.998 191.336 404.534 190.008C403.069 188.652 402.337 186.645 402.337 183.989V164.396H408.803V183.906C408.803 184.847 409.051 185.58 409.549 186.106C410.046 186.604 410.723 186.853 411.58 186.853C412.602 186.853 413.472 186.576 414.191 186.023L415.931 190.589C415.268 191.059 414.467 191.419 413.527 191.668C412.616 191.889 411.662 192 410.668 192ZM398.897 174.815V169.834H414.356V174.815H398.897Z" fill="white"/>
<path d="M421.219 191.668V169.336H427.684V191.668H421.219ZM424.451 166.223C423.263 166.223 422.296 165.877 421.55 165.185C420.804 164.493 420.431 163.635 420.431 162.611C420.431 161.587 420.804 160.73 421.55 160.038C422.296 159.346 423.263 159 424.451 159C425.639 159 426.606 159.332 427.353 159.996C428.099 160.633 428.472 161.463 428.472 162.487C428.472 163.566 428.099 164.465 427.353 165.185C426.634 165.877 425.667 166.223 424.451 166.223Z" fill="white"/>
<path d="M441.394 191.668L432.027 169.336H438.7L446.491 188.555H443.176L451.258 169.336H457.474L448.066 191.668H441.394Z" fill="white"/>
<path d="M471.774 192C469.397 192 467.284 191.502 465.432 190.506C463.609 189.509 462.158 188.153 461.081 186.438C460.031 184.694 459.506 182.716 459.506 180.502C459.506 178.26 460.031 176.282 461.081 174.566C462.158 172.823 463.609 171.467 465.432 170.498C467.284 169.502 469.397 169.004 471.774 169.004C474.122 169.004 476.222 169.502 478.073 170.498C479.925 171.467 481.375 172.809 482.425 174.525C483.475 176.24 484 178.233 484 180.502C484 182.716 483.475 184.694 482.425 186.438C481.375 188.153 479.925 189.509 478.073 190.506C476.222 191.502 474.122 192 471.774 192ZM471.774 186.687C472.851 186.687 473.818 186.438 474.675 185.94C475.531 185.442 476.208 184.736 476.706 183.823C477.203 182.882 477.452 181.775 477.452 180.502C477.452 179.201 477.203 178.094 476.706 177.181C476.208 176.268 475.531 175.562 474.675 175.064C473.818 174.566 472.851 174.317 471.774 174.317C470.696 174.317 469.729 174.566 468.872 175.064C468.016 175.562 467.325 176.268 466.8 177.181C466.303 178.094 466.054 179.201 466.054 180.502C466.054 181.775 466.303 182.882 466.8 183.823C467.325 184.736 468.016 185.442 468.872 185.94C469.729 186.438 470.696 186.687 471.774 186.687Z" fill="white"/>
<path d="M78.3546 60.9179C78.3546 72.1539 73.6809 81.9685 64.3333 90.3616C54.9857 98.6194 43.8511 103.087 30.9295 103.764C30.792 106.065 30.6545 107.825 30.5171 109.043C30.5171 110.126 30.5171 111.074 30.5171 111.886C30.5171 118.113 31.5481 122.513 33.61 125.085C35.8094 127.657 39.7272 128.943 45.3632 128.943C51.824 128.943 57.735 127.522 63.0961 124.679C68.5947 121.701 74.8493 116.286 81.86 108.434H88.8707C80.8977 121.159 72.2375 130.635 62.8899 136.862C53.5423 142.954 43.3013 146 32.1666 146C21.5819 146 13.5402 143.293 8.04166 137.878C2.68055 132.463 0 124.408 0 113.714C0 105.997 1.23718 97.8071 3.71154 89.1433C6.18589 80.4794 9.48503 72.7631 13.609 65.9944C18.6951 57.8721 24.7436 51.7803 31.7542 47.7191C38.9024 43.5225 46.8753 41.4242 55.673 41.4242C63.2336 41.4242 68.8696 43.0487 72.5811 46.2976C76.4301 49.4112 78.3546 54.2847 78.3546 60.9179ZM57.3226 52.1864C52.6488 52.1864 47.9063 56.3153 43.0951 64.573C38.4213 72.6954 34.9159 82.51 32.579 94.0167C40.552 93.4752 47.4939 89.8878 53.4049 83.2545C59.4533 76.4859 62.4775 68.905 62.4775 60.5118C62.4775 57.669 62.0651 55.5707 61.2403 54.217C60.4156 52.8632 59.1097 52.1864 57.3226 52.1864Z" fill="white"/>
<path d="M142.736 110.871C142.736 112.495 142.668 113.917 142.53 115.135C142.393 116.353 142.186 117.504 141.911 118.587C144.661 116.962 147.341 115.27 149.953 113.51C152.565 111.751 154.833 110.058 156.758 108.434H165.418C161.156 113.307 156.414 117.842 151.19 122.039C146.104 126.1 140.331 130.026 133.87 133.816C130.158 137.742 125.416 140.788 119.642 142.954C113.869 144.985 107.82 146 101.497 146C92.2869 146 84.9325 143.563 79.434 138.69C74.0728 133.681 71.3923 127.454 71.3923 120.008C71.3923 115.812 72.4233 112.021 74.4852 108.637C76.5472 105.117 79.159 102.613 82.3207 101.124C86.9945 92.866 91.3246 84.0668 95.3111 74.726C99.435 65.2499 103.559 54.0139 107.683 41.0181L138.2 36.9569C138.612 47.1099 139.093 56.3829 139.643 64.7761C140.193 73.1692 140.88 82.3069 141.705 92.1892C142.118 97.8748 142.393 101.868 142.53 104.17C142.668 106.471 142.736 108.705 142.736 110.871ZM108.92 62.9485C107.133 68.4988 104.934 74.3199 102.322 80.4117C99.8474 86.3681 96.4795 93.3398 92.2181 101.327C93.7302 102.004 94.8987 102.951 95.7235 104.17C96.5483 105.388 96.9607 106.809 96.9607 108.434C96.9607 111.006 96.0671 113.307 94.2801 115.338C92.4931 117.369 90.3624 118.384 87.888 118.384C86.5134 118.384 85.3449 118.181 84.3827 117.775C83.4204 117.233 82.7331 116.556 82.3207 115.744C82.3207 120.753 83.283 124.408 85.2075 126.709C87.2694 128.875 90.4998 129.958 94.8987 129.958C100.535 129.958 104.934 128.334 108.095 125.085C111.257 121.836 112.838 117.166 112.838 111.074C112.838 109.178 112.769 107.283 112.632 105.388C112.494 103.357 112.219 100.041 111.807 95.4381C111.119 89.0756 110.57 83.4576 110.157 78.5842C109.745 73.7107 109.332 68.4988 108.92 62.9485Z" fill="white"/>
<path d="M235.62 60.9179C235.62 72.1539 230.946 81.9685 221.598 90.3616C212.251 98.6194 201.116 103.087 188.195 103.764C188.057 106.065 187.92 107.825 187.782 109.043C187.782 110.126 187.782 111.074 187.782 111.886C187.782 118.113 188.813 122.513 190.875 125.085C193.074 127.657 196.992 128.943 202.628 128.943C209.089 128.943 215 127.522 220.361 124.679C225.86 121.701 232.114 116.286 239.125 108.434H246.136C238.163 121.159 229.503 130.635 220.155 136.862C210.807 142.954 200.566 146 189.432 146C178.847 146 170.805 143.293 165.307 137.878C159.946 132.463 157.265 124.408 157.265 113.714C157.265 105.997 158.502 97.8071 160.977 89.1433C163.451 80.4794 166.75 72.7631 170.874 65.9944C175.96 57.8721 182.009 51.7803 189.019 47.7191C196.167 43.5225 204.14 41.4242 212.938 41.4242C220.499 41.4242 226.135 43.0487 229.846 46.2976C233.695 49.4112 235.62 54.2847 235.62 60.9179ZM214.588 52.1864C209.914 52.1864 205.171 56.3153 200.36 64.573C195.686 72.6954 192.181 82.51 189.844 94.0167C197.817 93.4752 204.759 89.8878 210.67 83.2545C216.718 76.4859 219.743 68.905 219.743 60.5118C219.743 57.669 219.33 55.5707 218.505 54.217C217.681 52.8632 216.375 52.1864 214.588 52.1864Z" fill="white"/>
<path d="M318.38 60.1057C318.38 64.7084 317.349 68.3635 315.287 71.0709C313.363 73.643 310.751 74.9291 307.452 74.9291C306.352 74.9291 305.184 74.726 303.946 74.3199C302.709 73.9138 301.472 73.3046 300.235 72.4924C301.06 70.3264 301.678 68.2281 302.091 66.1975C302.503 64.1669 302.709 62.2717 302.709 60.5118C302.709 57.8044 302.228 55.7738 301.266 54.42C300.304 52.9309 298.86 52.1864 296.936 52.1864C290.887 52.1864 284.976 59.0904 279.203 72.8985C273.429 86.5712 270.543 99.567 270.543 111.886C270.543 118.113 271.574 122.513 273.636 125.085C275.835 127.657 279.753 128.943 285.389 128.943C291.85 128.943 297.761 127.522 303.122 124.679C308.62 121.701 314.875 116.286 321.885 108.434H328.896C320.923 121.159 312.263 130.635 302.915 136.862C293.568 142.954 283.327 146 272.192 146C261.607 146 253.566 143.293 248.067 137.878C242.706 132.463 240.026 124.408 240.026 113.714C240.026 105.997 241.194 97.8071 243.531 89.1433C246.005 80.4794 249.373 72.7631 253.634 65.9944C258.721 57.8721 264.769 51.7803 271.78 47.7191C278.928 43.5225 286.832 41.4242 295.492 41.4242C303.053 41.4242 308.758 43.0487 312.607 46.2976C316.456 49.4112 318.38 54.0139 318.38 60.1057Z" fill="white"/>
<path d="M373.559 123.054C373.559 120.618 373.834 117.572 374.383 113.917C375.071 110.261 376.377 104.44 378.301 96.4534C380.226 88.7371 381.463 83.1868 382.013 79.8025C382.563 76.4182 382.837 73.5753 382.837 71.274C382.837 67.8897 382.15 65.3176 380.776 63.5577C379.538 61.7979 377.683 60.9179 375.208 60.9179C371.909 60.9179 368.679 62.8809 365.517 66.8067C362.493 70.5971 360.5 74.5906 359.537 78.7872L345.31 144.782H315.617L345.516 6.70098L376.033 2.63978L364.898 53.8109C368.335 50.0204 372.047 47.1776 376.033 45.2823C380.019 43.3871 384.35 42.4395 389.023 42.4395C396.309 42.4395 401.945 44.4024 405.931 48.3282C409.918 52.2541 411.911 57.9397 411.911 65.3853C411.911 68.4988 411.499 72.2216 410.674 76.5536C409.987 80.7501 408.543 87.248 406.344 96.0473C404.557 102.951 403.388 107.825 402.839 110.668C402.289 113.51 402.014 115.879 402.014 117.775C402.014 120.618 402.701 122.784 404.076 124.273C405.45 125.626 407.512 126.303 410.262 126.303C413.698 126.303 416.654 125.153 419.128 122.851C421.602 120.55 424.42 115.744 427.582 108.434H436.242C431.844 121.024 426.482 130.432 420.159 136.659C413.973 142.886 406.55 146 397.89 146C390.192 146 384.212 143.969 379.951 139.908C375.689 135.712 373.559 130.094 373.559 123.054Z" fill="white"/>
<path d="M478.488 16.2448C478.488 20.7121 476.839 24.5026 473.54 27.6161C470.378 30.7297 466.529 32.2865 461.993 32.2865C457.456 32.2865 453.607 30.7297 450.446 27.6161C447.284 24.5026 445.703 20.7121 445.703 16.2448C445.703 11.7775 447.284 7.98703 450.446 4.87345C453.607 1.62448 457.456 0 461.993 0C466.529 0 470.378 1.62448 473.54 4.87345C476.839 7.98703 478.488 11.7775 478.488 16.2448ZM425.908 121.633C425.908 119.873 426.046 117.91 426.321 115.744C426.596 113.443 427.008 111.006 427.558 108.434L441.579 43.2518H471.272L456.425 112.292C456.151 113.51 455.944 114.661 455.807 115.744C455.669 116.692 455.601 117.707 455.601 118.79C455.601 121.497 456.219 123.46 457.456 124.679C458.831 125.762 461.031 126.303 464.055 126.303C467.904 126.303 471.547 124.679 474.983 121.43C478.42 118.045 480.963 113.713 482.612 108.434H491.273C486.874 120.753 480.963 130.094 473.54 136.456C466.117 142.819 457.594 146 447.971 146C441.098 146 435.668 143.902 431.682 139.705C427.833 135.373 425.908 129.349 425.908 121.633Z" fill="white"/>
<path d="M558.204 60.9179C558.204 72.1539 553.531 81.9685 544.183 90.3616C534.835 98.6194 523.701 103.087 510.779 103.764C510.642 106.065 510.504 107.825 510.367 109.043C510.367 110.126 510.367 111.074 510.367 111.886C510.367 118.113 511.398 122.513 513.46 125.085C515.659 127.657 519.577 128.943 525.213 128.943C531.674 128.943 537.585 127.522 542.946 124.679C548.444 121.701 554.699 116.286 561.71 108.434H568.72C560.747 121.159 552.087 130.635 542.74 136.862C533.392 142.954 523.151 146 512.016 146C501.432 146 493.39 143.293 487.891 137.878C482.53 132.463 479.85 124.408 479.85 113.714C479.85 105.997 481.087 97.8071 483.561 89.1433C486.036 80.4794 489.335 72.7631 493.459 65.9944C498.545 57.8721 504.593 51.7803 511.604 47.7191C518.752 43.5225 526.725 41.4242 535.523 41.4242C543.083 41.4242 548.719 43.0487 552.431 46.2976C556.28 49.4112 558.204 54.2847 558.204 60.9179ZM537.172 52.1864C532.499 52.1864 527.756 56.3153 522.945 64.573C518.271 72.6954 514.766 82.51 512.429 94.0167C520.402 93.4752 527.344 89.8878 533.255 83.2545C539.303 76.4859 542.327 68.905 542.327 60.5118C542.327 57.669 541.915 55.5707 541.09 54.217C540.265 52.8632 538.959 52.1864 537.172 52.1864Z" fill="white"/>
<path d="M559.815 121.633C559.815 119.873 559.953 117.91 560.228 115.744C560.503 113.443 560.915 111.006 561.465 108.434L583.528 6.70098L614.045 2.63978L590.332 112.292C590.057 113.51 589.851 114.661 589.714 115.744C589.576 116.692 589.508 117.707 589.508 118.79C589.508 121.497 590.126 123.46 591.363 124.679C592.738 125.762 594.937 126.303 597.962 126.303C601.811 126.303 605.453 124.679 608.89 121.43C612.327 118.045 614.87 113.713 616.519 108.434H625.18C620.781 120.753 614.87 130.094 607.447 136.456C600.024 142.819 591.501 146 581.878 146C575.005 146 569.575 143.902 565.589 139.705C561.74 135.373 559.815 129.349 559.815 121.633Z" fill="white"/>
</svg>
