<svg xmlns="http://www.w3.org/2000/svg" width="205.573" height="110.429" viewBox="0 0 205.573 110.429">
  <g id="Grupo_334" data-name="Grupo 334" transform="translate(-2291.877 -531.547)">
    <g id="Grupo_321" data-name="Grupo 321" transform="translate(2291.877 595.255)">
      <g id="Grupo_310" data-name="Grupo 310" transform="translate(0 0)">
        <g id="Grupo_296" data-name="Grupo 296" transform="translate(0 0.929)">
          <path id="Caminho_130" data-name="Caminho 130" d="M2291.877,640.471h4.623a26.366,26.366,0,0,1,5.379.346,5.979,5.979,0,0,1,3.255,2.016,6.521,6.521,0,0,1,.024,7.656,6.02,6.02,0,0,1-3.39,2.035,30.88,30.88,0,0,1-5.907.372H2294.2v10.811h-2.32Zm2.32,2.258v7.9l3.952.045a10.375,10.375,0,0,0,3.468-.427,3.557,3.557,0,0,0,1.737-1.413,3.965,3.965,0,0,0,0-4.315,3.432,3.432,0,0,0-1.664-1.381,10.154,10.154,0,0,0-3.391-.4Z" transform="translate(-2291.877 -640.471)" fill="#fff"/>
        </g>
        <g id="Grupo_297" data-name="Grupo 297" transform="translate(16.444)">
          <path id="Caminho_131" data-name="Caminho 131" d="M2321.4,638.906a1.763,1.763,0,0,1,1.291.536,1.732,1.732,0,0,1,.542,1.279,1.853,1.853,0,0,1-1.833,1.838,1.713,1.713,0,0,1-1.281-.544,1.736,1.736,0,0,1-.534-1.295,1.827,1.827,0,0,1,1.814-1.816Zm-1.1,7.071h2.21v17.188h-2.21Z" transform="translate(-2319.588 -638.906)" fill="#fff"/>
        </g>
        <g id="Grupo_298" data-name="Grupo 298" transform="translate(22.605 6.627)">
          <path id="Caminho_132" data-name="Caminho 132" d="M2330.014,661.188l-.031-1.832a11.276,11.276,0,0,1,.11-2.288,8.2,8.2,0,0,1,1.5-4.343,9.732,9.732,0,0,1,2.3-1.865,10.724,10.724,0,0,1,4.433-.785,6.928,6.928,0,0,1,3.6.983,5.512,5.512,0,0,1,2.362,2.631,14.162,14.162,0,0,1,.7,5.182v8.835H2342.8v-8.2a20.031,20.031,0,0,0-.252-3.981,3.605,3.605,0,0,0-1.552-2.418,6.6,6.6,0,0,0-3.429-.716,5.883,5.883,0,0,0-3.577,1.16,3.454,3.454,0,0,0-1.451,3.166,23.976,23.976,0,0,0-.3,4.687v6.3h-2.225Z" transform="translate(-2329.971 -650.073)" fill="#fff"/>
        </g>
        <g id="Grupo_299" data-name="Grupo 299" transform="translate(40.249 6.222)">
          <path id="Caminho_133" data-name="Caminho 133" d="M2377.188,653.4l-1.751,1.1a7.335,7.335,0,0,0-6.209-3.041,7.183,7.183,0,0,0-5.224,2.022,6.6,6.6,0,0,0-2.076,4.919,7.027,7.027,0,0,0,.952,3.547,6.63,6.63,0,0,0,2.618,2.577,7.969,7.969,0,0,0,9.938-2.1l1.751,1.141a8.239,8.239,0,0,1-3.317,2.864,10.687,10.687,0,0,1-4.736,1.009,9.343,9.343,0,0,1-6.743-2.585,8.386,8.386,0,0,1-2.687-6.282,8.994,8.994,0,0,1,1.26-4.649,8.836,8.836,0,0,1,3.448-3.334,10.014,10.014,0,0,1,4.907-1.2,10.541,10.541,0,0,1,3.284.516,9.141,9.141,0,0,1,2.706,1.359A7.183,7.183,0,0,1,2377.188,653.4Z" transform="translate(-2359.704 -649.391)" fill="#fff"/>
        </g>
        <g id="Grupo_300" data-name="Grupo 300" transform="translate(59.632)">
          <path id="Caminho_134" data-name="Caminho 134" d="M2394.188,638.906a1.78,1.78,0,0,1,1.291.536,1.74,1.74,0,0,1,.539,1.279,1.849,1.849,0,0,1-1.83,1.838,1.736,1.736,0,0,1-1.289-.544,1.775,1.775,0,0,1-.531-1.295,1.822,1.822,0,0,1,1.82-1.816Zm-1.1,7.071h2.21v17.188h-2.21Z" transform="translate(-2392.368 -638.906)" fill="#fff"/>
        </g>
        <g id="Grupo_301" data-name="Grupo 301" transform="translate(65.795 6.627)">
          <path id="Caminho_135" data-name="Caminho 135" d="M2402.8,661.188l-.031-1.832a11.329,11.329,0,0,1,.108-2.288,8.255,8.255,0,0,1,1.5-4.343,9.787,9.787,0,0,1,2.3-1.865,10.745,10.745,0,0,1,4.439-.785,6.947,6.947,0,0,1,3.594.983,5.546,5.546,0,0,1,2.36,2.631,14.229,14.229,0,0,1,.706,5.182v8.835h-2.192v-8.2a19.6,19.6,0,0,0-.254-3.981,3.6,3.6,0,0,0-1.551-2.418,6.626,6.626,0,0,0-3.433-.716,5.863,5.863,0,0,0-3.572,1.16,3.467,3.467,0,0,0-1.456,3.166,24.127,24.127,0,0,0-.3,4.687v6.3H2402.8Z" transform="translate(-2402.753 -650.073)" fill="#fff"/>
        </g>
        <g id="Grupo_302" data-name="Grupo 302" transform="translate(83.423 6.222)">
          <path id="Caminho_136" data-name="Caminho 136" d="M2441.4,649.391a8.532,8.532,0,0,1,6.584,2.867,8.873,8.873,0,0,1,2.412,6.223q.031,8.9,0,9.041h-2.334v-3.9q-1.832,3.423-6.662,3.824a8.4,8.4,0,0,1-6.443-2.686,9.223,9.223,0,0,1-.135-12.482A8.506,8.506,0,0,1,2441.4,649.391Zm0,2.162a6.352,6.352,0,0,0-4.716,2.04,6.817,6.817,0,0,0-1.97,4.922,7,7,0,0,0,1.008,3.593,7.871,7.871,0,0,0,3.424,2.909q6.046,1.354,8.6-5.5a11.562,11.562,0,0,0-.47-4.2,6.747,6.747,0,0,0-1.209-1.725A6.2,6.2,0,0,0,2441.4,651.553Z" transform="translate(-2432.46 -649.391)" fill="#fff"/>
        </g>
        <g id="Grupo_303" data-name="Grupo 303" transform="translate(103.31 0.348)">
          <path id="Caminho_137" data-name="Caminho 137" d="M2473.915,662.81a7.988,7.988,0,0,1-3.07.611,4.832,4.832,0,0,1-4.014-2.629,6.6,6.6,0,0,1-.857-3.448V639.492h2.221v8.3h4.094v1.9h-4.077v7.269a4.681,4.681,0,0,0,1.822,4.153,3.388,3.388,0,0,0,3.191-.141C2473.511,661.759,2473.739,662.37,2473.915,662.81Z" transform="translate(-2465.972 -639.492)" fill="#fff"/>
        </g>
        <g id="Grupo_304" data-name="Grupo 304" transform="translate(112.666 6.222)">
          <path id="Caminho_138" data-name="Caminho 138" d="M2490.687,649.391a8.521,8.521,0,0,1,6.579,2.867,9.01,9.01,0,0,1,2.371,6.223,8.9,8.9,0,0,1-2.509,6.278,9.074,9.074,0,0,1-12.89,0,9.226,9.226,0,0,1-.131-12.482A8.5,8.5,0,0,1,2490.687,649.391Zm0,2.162a6.369,6.369,0,0,0-4.716,2.04,6.811,6.811,0,0,0-1.98,4.922A7,7,0,0,0,2484.9,662a6.326,6.326,0,0,0,2.44,2.493,6.944,6.944,0,0,0,6.726,0,6.321,6.321,0,0,0,2.425-2.493,7.1,7.1,0,0,0,.888-3.484,6.815,6.815,0,0,0-1.972-4.922A6.37,6.37,0,0,0,2490.687,651.553Z" transform="translate(-2481.74 -649.391)" fill="#fff"/>
        </g>
        <g id="Grupo_305" data-name="Grupo 305" transform="translate(135.9 0.929)">
          <path id="Caminho_139" data-name="Caminho 139" d="M2520.892,663.706V640.471h4.8a24.493,24.493,0,0,1,7.587.845,10.061,10.061,0,0,1,5.273,4.1,12.47,12.47,0,0,1,1.906,6.97,12.254,12.254,0,0,1-1.513,6.142,9.717,9.717,0,0,1-3.919,3.922,14.708,14.708,0,0,1-6.742,1.257Zm2.222-2.206h2.685a25.2,25.2,0,0,0,6.689-.6,7.68,7.68,0,0,0,4.118-3.061,9.455,9.455,0,0,0,1.5-5.429,9.976,9.976,0,0,0-1.62-5.75,8.158,8.158,0,0,0-4.536-3.26,27.2,27.2,0,0,0-7.191-.672h-1.648Z" transform="translate(-2520.892 -640.471)" fill="#fff"/>
        </g>
        <g id="Grupo_306" data-name="Grupo 306" transform="translate(157.478 6.222)">
          <path id="Caminho_140" data-name="Caminho 140" d="M2566.2,649.391a8.52,8.52,0,0,1,6.58,2.867,9.241,9.241,0,0,1-.14,12.5,9.07,9.07,0,0,1-12.886,0,9.225,9.225,0,0,1-.133-12.482A8.5,8.5,0,0,1,2566.2,649.391Zm0,2.162a6.362,6.362,0,0,0-4.717,2.04,6.827,6.827,0,0,0-1.981,4.922,7.087,7.087,0,0,0,.9,3.484,6.3,6.3,0,0,0,2.441,2.493,6.944,6.944,0,0,0,6.726,0A6.281,6.281,0,0,0,2572,662a7.1,7.1,0,0,0,.9-3.484,6.838,6.838,0,0,0-1.974-4.922A6.361,6.361,0,0,0,2566.2,651.553Z" transform="translate(-2557.255 -649.391)" fill="#fff"/>
        </g>
        <g id="Grupo_307" data-name="Grupo 307" transform="translate(177.817 0.426)">
          <path id="Caminho_141" data-name="Caminho 141" d="M2591.531,639.624h2.224v23.833h-2.224Z" transform="translate(-2591.531 -639.624)" fill="#fff"/>
        </g>
        <g id="Grupo_308" data-name="Grupo 308" transform="translate(182.989 0.426)">
          <path id="Caminho_142" data-name="Caminho 142" d="M2600.246,639.624h2.225v23.833h-2.225Z" transform="translate(-2600.246 -639.624)" fill="#fff"/>
        </g>
        <g id="Grupo_309" data-name="Grupo 309" transform="translate(187.68 6.222)">
          <path id="Caminho_143" data-name="Caminho 143" d="M2617.093,649.391a8.53,8.53,0,0,1,6.585,2.867,9.025,9.025,0,0,1,2.366,6.223,8.918,8.918,0,0,1-2.509,6.278,9.068,9.068,0,0,1-12.885,0,9.234,9.234,0,0,1-.14-12.482A8.517,8.517,0,0,1,2617.093,649.391Zm0,2.162a6.367,6.367,0,0,0-4.715,2.04,6.822,6.822,0,0,0-1.978,4.922,7.008,7.008,0,0,0,.907,3.484,6.319,6.319,0,0,0,2.432,2.493,6.961,6.961,0,0,0,6.735,0A6.3,6.3,0,0,0,2622.9,662a7.106,7.106,0,0,0,.885-3.484,6.8,6.8,0,0,0-1.969-4.922A6.374,6.374,0,0,0,2617.093,651.553Z" transform="translate(-2608.151 -649.391)" fill="#fff"/>
        </g>
      </g>
      <g id="Grupo_320" data-name="Grupo 320" transform="translate(53.109 32.896)">
        <g id="Grupo_311" data-name="Grupo 311" transform="translate(0 0.528)">
          <path id="Caminho_144" data-name="Caminho 144" d="M2387.934,695.232l6.141,13.187h-1.4l-2.073-4.353h-5.693l-2.059,4.353h-1.474l6.236-13.187Zm-.165,2.788-2.273,4.788h4.516Z" transform="translate(-2381.375 -695.232)" fill="#fff"/>
        </g>
        <g id="Grupo_312" data-name="Grupo 312" transform="translate(14.002 0.007)">
          <path id="Caminho_145" data-name="Caminho 145" d="M2412.242,707.666a5.451,5.451,0,0,1-2.241.458,4.8,4.8,0,0,1-3.553-1.5,4.929,4.929,0,0,1-1.477-3.606,5.047,5.047,0,0,1,1.468-3.643,4.768,4.768,0,0,1,3.534-1.5,4.834,4.834,0,0,1,2.141.472,5.249,5.249,0,0,1,1.772,1.447v-5.448h1.246v9.241a6.712,6.712,0,0,1-.962,2.629A5.676,5.676,0,0,1,2412.242,707.666Zm.612-1.881a3.893,3.893,0,0,0,1.12-2.842,3.989,3.989,0,0,0-.5-1.993,3.573,3.573,0,0,0-1.421-1.414,3.954,3.954,0,0,0-1.957-.518,3.787,3.787,0,0,0-3.332,1.985,4.026,4.026,0,0,0-.532,1.98,3.917,3.917,0,0,0,.53,1.974,3.837,3.837,0,0,0,1.409,1.448,3.764,3.764,0,0,0,1.941.52A3.7,3.7,0,0,0,2412.854,705.786Z" transform="translate(-2404.971 -694.353)" fill="#fff"/>
        </g>
        <g id="Grupo_313" data-name="Grupo 313" transform="translate(25.441 4.029)">
          <path id="Caminho_146" data-name="Caminho 146" d="M2424.247,701.131h1.335l3.269,7.1,3.236-7.1h1.34l-4.464,9.759h-.218Z" transform="translate(-2424.247 -701.131)" fill="#fff"/>
        </g>
        <g id="Grupo_314" data-name="Grupo 314" transform="translate(35.701 3.535)">
          <path id="Caminho_147" data-name="Caminho 147" d="M2446.61,700.3a4.854,4.854,0,0,1,3.739,1.622,5.121,5.121,0,0,1,1.343,3.535,5.067,5.067,0,0,1-1.423,3.564,5.157,5.157,0,0,1-7.315,0,5.069,5.069,0,0,1-1.415-3.564,5.122,5.122,0,0,1,1.338-3.527A4.839,4.839,0,0,1,2446.61,700.3Zm0,1.219a3.6,3.6,0,0,0-2.676,1.164,3.865,3.865,0,0,0-1.12,2.788,4.038,4.038,0,0,0,.514,1.978,3.55,3.55,0,0,0,1.383,1.415,3.926,3.926,0,0,0,3.819,0,3.538,3.538,0,0,0,1.377-1.415,4.065,4.065,0,0,0,.509-1.978,3.873,3.873,0,0,0-1.124-2.788A3.6,3.6,0,0,0,2446.61,701.518Z" transform="translate(-2441.538 -700.299)" fill="#fff"/>
        </g>
        <g id="Grupo_315" data-name="Grupo 315" transform="translate(47.339 3.535)">
          <path id="Caminho_148" data-name="Caminho 148" d="M2471.081,702.574l-1,.62a4.18,4.18,0,0,0-3.526-1.724,4.091,4.091,0,0,0-2.966,1.149,3.759,3.759,0,0,0-1.176,2.79,3.978,3.978,0,0,0,.542,2.017,3.791,3.791,0,0,0,1.488,1.466,4.538,4.538,0,0,0,5.639-1.192l1,.645a4.712,4.712,0,0,1-1.89,1.625,6.054,6.054,0,0,1-2.685.573,5.321,5.321,0,0,1-3.829-1.466,4.769,4.769,0,0,1-1.528-3.567,5.142,5.142,0,0,1,2.675-4.536,5.72,5.72,0,0,1,2.79-.674,5.991,5.991,0,0,1,1.86.287,5.187,5.187,0,0,1,1.535.771A4.11,4.11,0,0,1,2471.081,702.574Z" transform="translate(-2461.149 -700.299)" fill="#fff"/>
        </g>
        <g id="Grupo_316" data-name="Grupo 316" transform="translate(58.834 3.535)">
          <path id="Caminho_149" data-name="Caminho 149" d="M2485.6,700.3a4.859,4.859,0,0,1,3.739,1.622,5.058,5.058,0,0,1,1.364,3.535c.01,3.367.01,5.083,0,5.132h-1.327v-2.217a4.336,4.336,0,0,1-3.776,2.171,4.8,4.8,0,0,1-3.665-1.522,5.246,5.246,0,0,1-.076-7.091A4.836,4.836,0,0,1,2485.6,700.3Zm0,1.219a3.6,3.6,0,0,0-2.68,1.164,3.865,3.865,0,0,0-1.12,2.788,3.976,3.976,0,0,0,.572,2.037,4.468,4.468,0,0,0,1.941,1.657q3.437.763,4.893-3.124a6.683,6.683,0,0,0-.276-2.386,3.952,3.952,0,0,0-.679-.972A3.522,3.522,0,0,0,2485.6,701.518Z" transform="translate(-2480.52 -700.299)" fill="#fff"/>
        </g>
        <g id="Grupo_317" data-name="Grupo 317" transform="translate(70.63 3.535)">
          <path id="Caminho_150" data-name="Caminho 150" d="M2510.322,702.574l-.994.62a4.153,4.153,0,0,0-3.518-1.724,4.091,4.091,0,0,0-2.971,1.149,3.755,3.755,0,0,0-1.177,2.79,3.963,3.963,0,0,0,.544,2.017,3.8,3.8,0,0,0,1.486,1.466,4.535,4.535,0,0,0,5.637-1.192l.994.645a4.657,4.657,0,0,1-1.876,1.625,6.109,6.109,0,0,1-2.7.573,5.313,5.313,0,0,1-3.822-1.466,4.76,4.76,0,0,1-1.526-3.567,5.124,5.124,0,0,1,2.67-4.536,5.734,5.734,0,0,1,2.792-.674,6.059,6.059,0,0,1,1.865.287,5.174,5.174,0,0,1,1.532.771A3.933,3.933,0,0,1,2510.322,702.574Z" transform="translate(-2500.4 -700.299)" fill="#fff"/>
        </g>
        <g id="Grupo_318" data-name="Grupo 318" transform="translate(81.999)">
          <path id="Caminho_151" data-name="Caminho 151" d="M2520.587,694.342a1.016,1.016,0,0,1,.735.3.975.975,0,0,1,.308.734,1.043,1.043,0,0,1-1.043,1.034.977.977,0,0,1-.729-.3,1.018,1.018,0,0,1-.3-.732,1.027,1.027,0,0,1,1.029-1.035Zm-.626,4.016h1.26v9.759h-1.26Z" transform="translate(-2519.558 -694.342)" fill="#fff"/>
        </g>
        <g id="Grupo_319" data-name="Grupo 319" transform="translate(85.415 3.535)">
          <path id="Caminho_152" data-name="Caminho 152" d="M2530.405,700.3a4.864,4.864,0,0,1,3.734,1.622,5.043,5.043,0,0,1,1.364,3.535c.013,3.367.013,5.083,0,5.132h-1.317v-2.217a4.36,4.36,0,0,1-3.781,2.171,4.791,4.791,0,0,1-3.665-1.522,5.068,5.068,0,0,1-1.426-3.564,5.119,5.119,0,0,1,1.354-3.527A4.823,4.823,0,0,1,2530.405,700.3Zm0,1.219a3.572,3.572,0,0,0-2.677,1.164,3.849,3.849,0,0,0-1.121,2.788,4,4,0,0,0,.563,2.037,4.448,4.448,0,0,0,1.951,1.657q3.43.763,4.88-3.124a6.68,6.68,0,0,0-.265-2.386,4.021,4.021,0,0,0-.686-.972A3.509,3.509,0,0,0,2530.405,701.518Z" transform="translate(-2525.314 -700.299)" fill="#fff"/>
        </g>
      </g>
    </g>
    <g id="Grupo_333" data-name="Grupo 333" transform="translate(2359.98 531.547)">
      <g id="Grupo_324" data-name="Grupo 324" transform="translate(0 4.835)">
        <g id="Grupo_323" data-name="Grupo 323">
          <g id="Grupo_322" data-name="Grupo 322">
            <path id="Caminho_153" data-name="Caminho 153" d="M2474.984,542.835c-.817-.414-.7-.875-.7-.875s.181-.607.476-.535-.841-1.358-1.594-1.552a17.28,17.28,0,0,0-6.832.373c-2.107.778-7.644,5.068-7.644,5.068a86.339,86.339,0,0,1-9.911,6.174c-4.083,1.968-4.627,4.061-4.627,4.061l-2.372,3.251s-.516,1.37-.778-.2a8.344,8.344,0,0,0,1.261-2.256,29.988,29.988,0,0,0-4.694,3.112,38.6,38.6,0,0,1-6.3,3.767c-1.116.269-7.743,6.472-6.451,10.667-2.784,1.635-18.068,3.343-18.176,3.156a8.589,8.589,0,0,0,1.585,1.24,87.549,87.549,0,0,0,19.569-4.043,17.773,17.773,0,0,0,6.406.761,51.636,51.636,0,0,0,5.754-.63c1.113-.339-3.259-1.475-3.259-1.475a24.842,24.842,0,0,0,5.5-.091,31.25,31.25,0,0,0,10.248-3.6,46.282,46.282,0,0,0,10.727-8.074,29.573,29.573,0,0,0,8.33-7.961c-2.632,1.157-3.937.281-3.937.281s-.384-.594.59-.344,4.045-1.412,5.357-3.857a21.8,21.8,0,0,0,1.787-4.292S2474.533,543.415,2474.984,542.835ZM2431.441,571.6l37.2-25.311C2455.938,556.636,2456,556.589,2431.441,571.6Z" transform="translate(-2406.642 -539.695)" fill="#fff"/>
          </g>
        </g>
      </g>
      <g id="Grupo_332" data-name="Grupo 332" transform="translate(7.26)">
        <g id="Grupo_326" data-name="Grupo 326" transform="translate(0.489 25.102)">
          <g id="Grupo_325" data-name="Grupo 325">
            <path id="Caminho_154" data-name="Caminho 154" d="M2472.81,602.542H2419.7v-.511h52.6V573.848h.512Z" transform="translate(-2419.7 -573.848)" fill="#fff"/>
          </g>
        </g>
        <g id="Grupo_331" data-name="Grupo 331">
          <g id="Grupo_328" data-name="Grupo 328" transform="translate(0.26)">
            <g id="Grupo_327" data-name="Grupo 327">
              <path id="Caminho_155" data-name="Caminho 155" d="M2472.653,535.63h-.512v-3.573h-52.827v-.511h53.339Z" transform="translate(-2419.313 -531.547)" fill="#fff"/>
            </g>
          </g>
          <g id="Grupo_330" data-name="Grupo 330">
            <g id="Grupo_329" data-name="Grupo 329">
              <rect id="Retângulo_69" data-name="Retângulo 69" width="0.513" height="53.806" fill="#fff"/>
            </g>
          </g>
        </g>
      </g>
    </g>
  </g>
</svg>
